<?xml version="1.0" standalone="no"?>
<!DOCTYPE svg PUBLIC "-//W3C//DTD SVG 1.1//EN" "http://www.w3.org/Graphics/SVG/1.1/DTD/svg11.dtd" >
<svg xmlns="http://www.w3.org/2000/svg">
<metadata>Generated by IcoMoon</metadata>
<defs>
<font id="icomoon" horiz-adv-x="1024">
<font-face units-per-em="1024" ascent="960" descent="-64" />
<missing-glyph horiz-adv-x="1024" />
<glyph unicode="&#x20;" horiz-adv-x="512" d="" />
<glyph unicode="&#xe900;" glyph-name="icons-blackjack" horiz-adv-x="724" d="M506.341 37.181h-288.684v48.9l4.464 5.32c23.188 27.61 43.298 57.046 60.134 88.026-47.074-19.839-89.517-15.083-92.021-14.78-51.716 3.129-97.497 27.058-131.283 69.094-41.171 51.215-58.955 125.055-47.585 197.487 20.163 128.508 203.297 288.058 247.566 320.665 42.214 31.105 87.755 87.786 88.214 88.349l14.854 18.577 14.854-18.556c0.459-0.574 46.094-57.317 88.214-88.37 44.248-32.607 227.413-192.167 247.566-320.665v0c11.37-72.442-6.436-146.282-47.606-197.487-33.775-42.036-79.556-65.965-132.43-69.209-1.69-0.229-43.862-4.976-90.853 14.874 16.846-30.969 36.956-60.415 60.123-87.995l4.464-5.32v-48.9zM258.128 75.243h207.709c-37.259 46.063-66.726 96.819-87.629 151.007l-16.23 42.036-16.21-42.036c-20.883-54.146-50.339-104.893-87.64-151.007zM369.384 287.479l40.19-41.066c50.6-51.737 118.891-44.070 119.569-43.997 42.996 2.66 79.347 21.707 106.228 55.169 34.568 43.027 49.39 105.727 39.668 167.759v0c-16.846 107.469-176.354 254.533-232.545 295.923-31.073 22.896-62.585 56.942-80.495 77.543-17.91-20.601-49.432-54.658-80.495-77.543-56.191-41.41-215.678-188.454-232.535-295.923-9.732-62.032 5.090-124.742 39.658-167.759 26.88-33.452 63.221-52.498 105.091-55.054 1.752-0.177 70.554-7.395 120.706 43.883l47.565 48.629 7.395-7.562z" />
<glyph unicode="&#xe901;" glyph-name="icons-instantwins" horiz-adv-x="724" d="M183.674 504.114h-34.999c-19.445 0-43.586 12.362-54.963 28.149l-23.791 33.053c-7.070 9.833-8.665 20.282-4.346 28.714 4.326 8.425 13.744 13.264 25.834 13.264h9.547c18.226 0 41.543-6.577 53.088-14.989 5.5-4.008 13.666-3.684 16.987-0.72 11.454 10.19 34.733 15.709 50.805 15.709h6.356c11.811 0 21.404-4.806 26.307-13.18 4.916-8.38 4.423-19.088-1.343-29.401l-16.559-29.576c-9.729-17.389-32.982-31.023-52.926-31.023zM87.032 583.049c0.221-0.765 0.791-2.076 2.101-3.898l23.804-33.066c7.037-9.762 23.739-18.31 35.751-18.31h34.999c11.558 0 26.651 8.84 32.301 18.926l16.565 29.57c1.823 3.282 1.855 5.409 1.57 5.876-0.266 0.467-2.127 1.485-5.896 1.485h-6.356c-13.828 0-29.92-5.137-35.083-9.729-12.012-10.683-32.521-11.007-46.622-0.733-6.81 4.949-24.556 10.462-39.176 10.462h-9.547c-2.264 0-3.652-0.318-4.404-0.584zM221.76 239.412h-104.964c-19.121 0-43.794 11.454-56.143 26.067l-39.383 46.615c-11.928 14.12-21.274 39.643-21.274 58.134v12.499c0 18.31 8.75 44.021 19.919 58.537l25.516 33.118c10.864 14.114 32.229 30.569 48.626 37.47l7.673 3.217c16.021 6.739 42.205 12.025 59.607 12.025h31.795c5.533 0 11.96-0.688 19.108-2.043 5.072 0.246 16.877-0.441 32.573-8.562l-10.877-21.015c-12.862 6.661-20.82 5.922-20.892 5.915l-1.777-0.175-2.089 0.305c-6.188 1.245-11.733 1.9-16.046 1.9h-31.795c-14.23 0-37.321-4.663-50.429-10.17l-7.686-3.224c-12.505-5.267-30.77-19.328-39.052-30.095l-25.516-33.118c-7.997-10.384-15.002-30.99-15.002-44.099v-12.499c0-12.946 7.329-32.969 15.683-42.853l39.383-46.615c7.965-9.411 25.756-17.681 38.073-17.681h104.964c2.867 0 6.337 0.441 9.995 1.265 4.164 0.876 16.034 4.242 23.025 9.749l14.633-18.589c-12.661-9.982-30.679-13.893-32.683-14.295-5.215-1.167-10.319-1.79-14.976-1.79zM575.328 504.114h-34.986c-19.951 0-43.21 13.634-52.946 31.029l-16.565 29.57c-5.76 10.313-6.259 21.034-1.343 29.408 4.897 8.38 14.503 13.18 26.307 13.18h6.376c16.072 0 39.325-5.513 50.792-15.722 3.334-2.951 11.474-3.282 16.987 0.726 11.539 8.412 34.869 14.989 53.088 14.989h9.547c12.103 0 21.521-4.839 25.834-13.264 4.326-8.432 2.737-18.894-4.326-28.714l-23.81-33.053c-11.37-15.787-35.498-28.149-54.956-28.149zM495.802 583.633c-3.768 0-5.63-1.018-5.896-1.485-0.285-0.467-0.259-2.594 1.57-5.876l16.565-29.57c5.656-10.079 20.729-18.92 32.301-18.92h34.986c12.025 0 28.733 8.549 35.764 18.31l23.804 33.053c1.31 1.823 1.861 3.133 2.108 3.898-0.765 0.266-2.147 0.584-4.411 0.584h-9.547c-14.613 0-32.372-5.513-39.156-10.462-14.127-10.261-34.61-9.963-46.641 0.72-5.156 4.605-21.261 9.742-35.070 9.742h-6.382zM607.213 239.412h-104.964c-4.638 0-9.749 0.623-15.177 1.829-1.81 0.37-19.815 4.281-32.482 14.263l14.633 18.589c7.044-5.546 19.14-8.957 22.805-9.703 3.898-0.869 7.362-1.31 10.216-1.31h104.964c12.33 0 30.102 8.27 38.067 17.681l39.39 46.615c8.354 9.885 15.683 29.907 15.683 42.853v12.499c0 13.115-7.011 33.708-15.015 44.099l-25.497 33.118c-8.302 10.767-26.554 24.829-39.065 30.089l-7.66 3.217c-13.115 5.513-36.192 10.177-50.436 10.177h-31.801c-4.313 0-9.859-0.655-16.053-1.9l-2.082-0.409-2.101 0.324c0.045 0.006-0.097 0.006-0.48 0.006-1.9 0-9.269-0.37-20.094-5.974l-10.877 21.015c15.683 8.121 27.384 8.802 32.573 8.562 7.161 1.356 13.575 2.043 19.108 2.043h31.801c17.409 0 43.586-5.286 59.6-12.032l7.66-3.217c16.41-6.901 37.781-23.35 48.658-37.463l25.497-33.124c11.169-14.516 19.919-40.226 19.919-58.537v-12.499c0-18.492-9.359-44.014-21.287-58.134l-39.383-46.609c-12.349-14.613-37.009-26.067-56.13-26.067zM377.185 543.011h-39.571c-22.033 0-47.737 15.067-58.504 34.292v0l-18.719 33.429c-6.259 11.169-6.81 22.727-1.544 31.723 5.28 8.983 15.631 14.14 28.422 14.14h7.2c17.882 0 43.729-6.090 56.416-17.389 4.443-3.937 15.035-3.691 21.145 0.726 12.836 9.34 38.8 16.656 59.107 16.656h10.799c13.082 0 23.22-5.156 27.825-14.153s2.873-20.243-4.774-30.861l-26.904-37.379c-12.609-17.473-39.344-31.178-60.898-31.178zM299.755 588.88c6.616-11.824 24.316-22.202 37.859-22.202h39.571c14.016 0 33.487 9.982 41.673 21.359l26.911 37.373c2.633 3.652 2.958 5.915 2.867 6.421-0.188 0.032-2.218 1.096-6.707 1.096h-10.799c-16.812 0-37.308-6.389-45.182-12.122-7.271-5.286-16.403-8.198-25.704-8.198-9.703 0-18.628 3.165-25.101 8.912-6.058 5.39-24.738 11.402-40.687 11.402h-7.2c-4.527 0-7.284-1.232-8.010-2.452-0.72-1.213-0.441-4.222 1.784-8.192l18.732-33.397zM423.937 239.652h-118.675c-20.866 0-48.885 11.383-63.823 25.918l-40.596 39.507c-14.704 14.302-28.033 41.498-30.316 61.896l-2.886 25.542c-2.335 20.652 5.643 49.858 18.135 66.476l25.821 34.37c11.714 15.579 34.065 35.485 50.87 45.325l8.899 5.189c17.201 10.066 46.304 17.953 66.255 17.953h35.965c19.51 0 48.859-5.915 66.813-13.472l8.646-3.639c13.9-5.844 31.477-18.103 44.78-31.243 3.937-3.892 7.083-7.368 9.599-10.644l28.843-37.457c4.112-5.332 7.997-12.148 11.539-20.249 6.674-15.249 10.663-32.080 10.663-44.994v-14.14c0-2.932-0.246-6.123-0.765-10.053-1.609-11.941-5.922-25.529-11.844-37.295-3.496-6.966-7.225-12.81-11.078-17.383v0l-44.533-52.712c-4.462-5.28-10.494-10.28-17.908-14.866-14.224-8.789-30.841-14.049-44.41-14.049zM337.614 538.166c-15.806 0-40.674-6.739-54.327-14.73l-8.886-5.189c-14.016-8.198-34.13-26.113-43.898-39.111l-25.821-34.363c-8.86-11.785-15.197-34.973-13.543-49.605l2.88-25.542c1.68-14.905 12.576-37.133 23.311-47.582l40.596-39.507c10.527-10.235 32.631-19.218 47.316-19.218h118.675c9.23 0 21.469 4.041 31.957 10.527 5.221 3.224 9.457 6.687 12.278 10.021l44.527 52.699c2.62 3.1 5.396 7.504 8.017 12.726 4.787 9.522 8.257 20.386 9.541 29.823 0.37 2.795 0.551 5.066 0.551 6.901v14.14c0 9.664-3.327 23.265-8.685 35.492-2.737 6.259-5.721 11.552-8.607 15.307l-28.837 37.45c-1.829 2.374-4.352 5.143-7.478 8.237-10.987 10.845-26.333 21.65-37.314 26.268l-8.652 3.639c-14.983 6.304-41.362 11.629-57.635 11.629h-35.965z" />
<glyph unicode="&#xe902;" glyph-name="icons-livecasino" horiz-adv-x="724" d="M359.753 439.996c-18.116 0-35.709 6.464-49.536 18.21-6.584 5.591-7.371 15.445-1.789 22.011 5.582 6.584 15.436 7.371 22.011 1.798 16.386-13.921 42.267-13.912 58.628 0 6.592 5.582 16.429 4.76 22.020-1.798 5.582-6.567 4.777-16.421-1.789-22.011-13.818-11.746-31.437-18.21-49.544-18.21zM319.986 574.409c0-10.094-8.185-18.278-18.278-18.278s-18.278 8.185-18.278 18.278c0 10.094 8.185 18.278 18.278 18.278s18.278-8.185 18.278-18.278zM440.521 574.409c0-10.094-8.185-18.278-18.278-18.278s-18.278 8.185-18.278 18.278c0 10.094 8.185 18.278 18.278 18.278s18.278-8.185 18.278-18.278zM361.988 359.82c-56.025 0-86.803 35.315-91.555 41.188-17.097 18.501-33.089 48.389-44.81 70.254-4.769 8.904-10.719 19.991-12.799 22.431-12.328 14.383-25.821 62.592-25.821 76.358 0 12.945 8.313 23.304 14.717 29.365v70.562c0 0.531 0.017 1.053 0.086 1.575 11.592 114.576 109.379 139.37 160.191 136.639 50.846 2.8 148.59-22.054 160.191-136.639 0.060-0.531 0.086-1.053 0.086-1.575v-70.562c6.404-6.061 14.725-16.421 14.725-29.365 0-13.767-13.518-61.975-25.821-76.35-2.089-2.457-8.031-13.544-12.808-22.448-11.703-21.866-27.696-51.736-44.81-70.246-4.752-5.89-35.521-41.188-91.555-41.188zM294.73 420.656c1.062-1.361 23.621-29.596 67.258-29.596 43.791 0 66.333 28.398 67.266 29.614 0.291 0.368 0.676 0.83 1.002 1.173 14.494 15.487 29.545 43.611 40.546 64.141 8.116 15.154 12.534 23.261 16.626 28.030 5.77 6.866 18.313 47.019 18.313 56.025-0.3 2.020-4.803 6.977-8.048 9.255-4.178 2.919-6.678 7.697-6.678 12.799v67.069c-18.766 8.287-49.245 25.992-75.862 43.962 0.976-8.604 2.414-18.296 4.169-27.619 0.907-4.794-0.479-9.717-3.724-13.33s-7.953-5.505-12.842-5.137c-16.13 1.267-34.81 11.755-50.46 22.876 2.885-17.516 5.548-32.096 5.591-32.345 0.976-5.342-0.882-10.796-4.923-14.434-4.050-3.621-9.691-4.871-14.88-3.356-38.671 11.472-62.498 35.872-75.545 50.769-2.628-1.413-5.599-2.937-8.972-4.666-5.839-2.979-15.89-8.116-20.59-11.541v-72.249c0-5.103-2.491-9.88-6.686-12.799-3.656-2.628-7.757-7.38-8.039-9.375 0-8.895 12.551-49.039 18.313-55.905 4.084-4.76 8.501-12.868 16.609-28.013 10.993-20.539 26.078-48.671 40.546-64.159 0.342-0.42 0.676-0.805 1.002-1.233zM265.545 716.732c0.034 0 0.077 0 0.103 0 4.246-0.017 8.176-1.909 11.087-4.991 1.524-1.584 3.33-3.698 5.479-6.198 7.782-9.084 20.419-23.869 39.964-35.144-2.414 14.529-5.162 31.951-6.798 45.598-0.788 6.549 2.628 12.885 8.519 15.838s13.013 1.866 17.782-2.697c11.053-10.573 27.978-24.169 42.755-32.747-1.875 15.171-2.979 32.31-0.257 41.728 1.438 4.966 5.24 8.904 10.154 10.513s10.299 0.668 14.4-2.474c23.621-18.21 54.895-37.413 76.821-49.33-25.598 84.671-118.343 80.357-122.624 80.134-0.625-0.043-1.293-0.043-1.926 0-4.109 0.248-91.195 4.229-119.961-72.36 5.145 2.637 11.712 6.053 13.45 7.543 2.937 3.022 6.84 4.589 11.053 4.589zM410.582 322.946v-52.661l-43.32 17.756c0 0-4.863 0-6.892 0s-6.892 0-6.892 0l-43.32-17.756v52.661l43.32-17.765c0 0 4.854 0 6.892 0s6.892 0 6.892 0l43.32 17.765zM410.582 354.186c-4.007 0-8.031-0.771-11.849-2.346l-37.627-15.419h-1.481l-37.627 15.419c-3.81 1.558-7.842 2.346-11.849 2.346-6.113 0-12.183-1.798-17.397-5.308-8.655-5.796-13.835-15.513-13.835-25.932v-52.661c0-10.411 5.188-20.153 13.835-25.941 5.214-3.51 11.284-5.299 17.397-5.299 4.007 0 8.031 0.762 11.849 2.329l37.627 15.419h1.481l37.627-15.419c3.81-1.558 7.842-2.329 11.849-2.329 6.113 0 12.183 1.789 17.397 5.299 8.655 5.796 13.835 15.53 13.835 25.941v52.661c0 10.411-5.188 20.136-13.835 25.932-5.214 3.51-11.284 5.308-17.397 5.308v0zM376.396 185.785c0-8.852-7.174-16.027-16.027-16.027s-16.027 7.174-16.027 16.027c0 8.852 7.174 16.027 16.027 16.027s16.027-7.174 16.027-16.027zM376.405 118.579c0-8.852-7.183-16.035-16.035-16.035s-16.035 7.183-16.035 16.035c0 8.852 7.183 16.035 16.035 16.035s16.035-7.183 16.035-16.035zM309.978 85.018h-293.961c-4.443 0-8.673 1.892-11.643 5.205s-4.375 7.748-3.87 12.166l13.030 114.927c0.034 0.342 0.086 0.711 0.146 1.062 3.51 19.263 32.696 34.776 103.489 68.199 9.786 4.615 19.486 9.195 28.629 13.655v0c15.607 7.568 35.701 20.273 59.698 37.747 3.433 2.474 7.748 3.476 11.934 2.748 4.178-0.753 7.885-3.176 10.248-6.695 28.612-42.807 79.363-129.695 97.685-230.599 0.822-4.563-0.42-9.255-3.382-12.799-2.954-3.562-7.354-5.616-11.986-5.616zM153.717 116.259h137.144c-17.636 78.122-54.536 146.090-80.391 186.911-19.768-13.767-36.882-24.177-51.043-31.052-6.438-3.133-13.15-6.318-19.974-9.563l14.263-146.296zM33.507 116.259h88.824l-12.885 132.084c-27.259-13.099-58.448-28.877-65.152-36.916l-10.787-95.168zM707.968 85.018h-293.978c-4.623 0-9.015 2.055-11.986 5.616-2.971 3.544-4.195 8.236-3.373 12.799 18.347 100.938 69.090 187.801 97.71 230.608 2.363 3.519 6.061 5.933 10.248 6.695s8.476-0.257 11.934-2.748c24.074-17.534 44.151-30.239 59.689-37.773 9.143-4.46 18.826-9.032 28.603-13.655 70.802-33.415 99.988-48.928 103.489-68.217 0.077-0.342 0.111-0.685 0.154-1.044l13.030-114.927c0.514-4.418-0.907-8.852-3.861-12.166s-7.226-5.197-11.652-5.197zM599.667 116.259h90.801l-10.796 95.168c-6.789 8.133-38.74 24.246-66.239 37.447l-13.767-132.615zM433.107 116.259h135.149l15.231 146.784c-6.464 3.074-12.825 6.104-18.955 9.066-14.1 6.849-31.223 17.268-51.025 31.052-25.864-40.803-62.772-108.763-80.408-186.911z" />
<glyph unicode="&#xe903;" glyph-name="icons-mostpopular" horiz-adv-x="724" d="M566.99 247.861c-7.476 0-16.986 2.727-28.485 11.067l-154.036 111.939c-11.76 8.522-33.2 8.544-44.983-0.011l-154.025-111.928c-23.065-16.736-38.086-10.805-44.971-5.806-6.908 4.999-17.168 17.464-8.363 44.574l58.833 181.078c4.511 13.839-2.113 34.223-13.884 42.756l-154.036 111.928c-23.042 16.736-22.065 32.848-19.429 40.96s11.305 21.724 39.801 21.724h190.395c14.555 0 31.905 12.601 36.393 26.44l58.833 181.078c8.806 27.087 24.429 31.132 32.961 31.132s24.156-4.045 32.961-31.132l58.844-181.078c4.477-13.839 21.838-26.44 36.393-26.44h190.395c28.496 0 37.165-13.612 39.813-21.724 2.613-8.113 3.602-24.224-19.441-40.972l-154.036-111.917c-11.771-8.556-18.384-28.939-13.907-42.767l58.844-181.078c8.806-27.099-1.466-39.551-8.363-44.574-3.465-2.5-8.965-5.249-16.498-5.249zM64.342 654.693l137.107-99.612c26.269-19.088 38.995-58.219 28.951-89.124l-52.368-161.172 137.095 99.6c26.269 19.111 67.445 19.1 93.726 0.011l137.095-99.612-52.368 161.183c-10.033 30.882 2.693 70.036 28.985 89.124l137.095 99.612h-169.477c-32.496 0-65.787 24.201-75.819 55.084l-52.379 161.149-52.368-161.172c-10.033-30.882-43.335-55.084-75.831-55.084h-169.454zM581.068-38.793h-438.112v148.366h438.112v-148.366zM184.394 2.656h355.202v65.446h-355.202v-65.446zM489.455 68.454h-254.909v149.991h254.909v-149.991zM275.995 109.914h171.988v67.071h-171.988v-67.071zM341.259 398.023h41.46v-200.303h-41.46v200.303z" />
<glyph unicode="&#xe904;" glyph-name="icons-newgames" horiz-adv-x="724" d="M522.672 733.853h-321.325l-201.349-202.124 361.998-369.582 362.007 369.582-201.332 202.124zM527.938 687.495l137.198-138.067h-131.736l-75.936 138.067h70.474zM420.719 687.495l72.996-138.067h-263.454l72.996 138.067h117.453zM196.055 687.495h70.474l-75.945-138.067h-131.727l137.198 138.067zM58.849 514.915h131.727l132.63-263.693-264.358 263.693zM230.269 514.915h263.454l-131.727-269.914-131.727 269.914zM400.77 251.214l132.63 263.693h131.736l-264.366-263.693z" />
<glyph unicode="&#xe905;" glyph-name="icons-roulette" horiz-adv-x="724" d="M274.096 290.194l-15.805-15.814c16.699-10.005 34.958-17.684 54.311-22.563v22.372c-13.553 3.858-26.449 9.266-38.505 16.006zM188.202 398.569h-22.372c4.879-19.344 12.549-37.621 22.572-54.311l15.814 15.814c-6.758 12.048-12.157 24.962-16.015 38.496zM519.802 360.082l15.805-15.814c10.014 16.708 17.693 34.967 22.563 54.311h-22.363c-3.858-13.534-9.266-26.449-16.006-38.496zM312.583 621.785v22.39c-19.353-4.87-37.621-12.558-54.311-22.572l15.805-15.814c12.066 6.749 24.962 12.166 38.505 16.006zM449.905 605.779l15.814 15.814c-16.699 10.014-34.939 17.702-54.311 22.572v-22.39c13.553-3.84 26.449-9.266 38.496-16.006zM411.418 274.179v-22.372c19.353 4.879 37.621 12.558 54.311 22.563l-15.814 15.814c-12.057-6.731-24.944-12.139-38.496-16.006zM519.802 535.891c6.731-12.048 12.148-24.935 16.006-38.496h22.363c-4.87 19.353-12.549 37.621-22.563 54.311l-15.805-15.814zM204.208 535.891l-15.814 15.814c-10.014-16.699-17.693-34.939-22.572-54.311h22.372c3.867 13.553 9.275 26.449 16.015 38.496zM362.005 712.129c16.881 0 33.389-1.623 49.422-4.66v-63.294c-15.833 3.967-32.368 6.111-49.422 6.111s-33.59-2.134-49.422-6.111v63.294c16.015 3.037 32.532 4.66 49.422 4.66zM362.005 741.551c-18.377 0-36.855-1.742-54.913-5.18l-23.94-4.533v-125.439l36.618 9.23c13.753 3.475 27.962 5.226 42.226 5.226s28.473-1.751 42.217-5.226l36.627-9.23v125.439l-23.94 4.533c-18.058 3.438-36.545 5.18-54.913 5.18v0zM362.005 628.662c17.128 0 33.699-2.408 49.422-6.877v22.39c-15.833 3.967-32.368 6.111-49.422 6.111s-33.59-2.134-49.422-6.111v-22.39c15.705 4.478 32.295 6.877 49.422 6.877zM362.005 712.129c16.881 0 33.389-1.623 49.422-4.66v21.98c-16.061 2.818-32.568 4.305-49.422 4.305s-33.352-1.487-49.422-4.305v-21.98c16.015 3.037 32.532 4.66 49.422 4.66zM213.538 666.346l44.734-44.753c-28.646-17.182-52.705-41.232-69.888-69.888l-44.734 44.753c18.715 27.433 42.464 51.164 69.888 69.888zM217.104 704.405l-20.156-13.753c-30.616-20.885-56.727-46.978-77.622-77.604l-13.744-20.146 88.657-88.648 19.389 32.34c14.665 24.442 35.341 45.118 59.783 59.783l32.34 19.399-88.648 88.63zM274.096 605.779l-15.805 15.814c-28.646-17.182-52.705-41.232-69.888-69.888l15.814-15.814c16.362 29.267 40.621 53.508 69.879 69.888zM213.538 666.346l-15.532 15.523c-27.123-19.089-50.809-42.755-69.879-69.888l15.523-15.523c18.715 27.433 42.464 51.164 69.888 69.888zM165.821 497.395c-3.986-15.814-6.111-32.368-6.111-49.404s2.134-33.59 6.111-49.422h-63.294c-3.037 16.015-4.66 32.532-4.66 49.422 0 16.872 1.623 33.398 4.66 49.404h63.294zM203.597 526.844h-125.439l-4.551-23.931c-3.438-18.067-5.171-36.554-5.171-54.913 0-18.377 1.742-36.855 5.171-54.922l4.551-23.931h125.439l-9.23 36.627c-3.475 13.753-5.226 27.962-5.226 42.226s1.751 28.464 5.226 42.217l9.23 36.608zM181.334 447.991c0 17.128 2.399 33.69 6.867 49.404h-22.372c-3.986-15.814-6.111-32.368-6.111-49.404s2.134-33.59 6.111-49.422h22.372c-4.469 15.705-6.867 32.295-6.867 49.422zM97.867 447.991c0 16.872 1.623 33.398 4.66 49.404h-21.989c-2.809-16.061-4.277-32.568-4.277-49.404 0-16.863 1.477-33.371 4.277-49.422h21.989c-3.046 16.033-4.66 32.532-4.66 49.422zM188.403 344.258c17.182-28.628 41.241-52.705 69.888-69.888l-44.734-44.725c-27.433 18.715-51.173 42.445-69.888 69.879l44.734 44.734zM194.249 391.738l-88.657-88.648 13.744-20.156c20.876-30.607 46.987-56.727 77.622-77.604l20.156-13.744 88.648 88.657-32.34 19.389c-24.442 14.656-45.118 35.332-59.783 59.783l-19.389 32.322zM204.208 360.082l-15.814-15.814c17.182-28.628 41.241-52.705 69.888-69.888l15.805 15.814c-29.239 16.362-53.499 40.63-69.879 69.888zM143.65 299.524l-15.523-15.523c19.079-27.133 42.755-50.809 69.879-69.879l15.532 15.523c-27.424 18.705-51.173 42.445-69.888 69.879zM411.418 251.816v-63.294c-16.015-3.037-32.532-4.66-49.422-4.66s-33.398 1.623-49.422 4.66v63.294c15.814-3.986 32.368-6.12 49.422-6.12s33.59 2.134 49.422 6.12zM440.849 289.583l-36.627-9.23c-13.744-3.475-27.953-5.226-42.217-5.226s-28.473 1.751-42.226 5.226l-36.618 9.23v-125.43l23.94-4.56c18.058-3.429 36.526-5.171 54.913-5.171 18.368 0 36.855 1.742 54.913 5.171l23.94 4.56v125.43zM362.005 267.32c-17.128 0-33.708 2.399-49.422 6.858v-22.372c15.814-3.986 32.368-6.12 49.422-6.12s33.59 2.134 49.422 6.12v22.372c-15.723-4.46-32.295-6.858-49.422-6.858zM362.005 183.852c-16.881 0-33.398 1.623-49.422 4.66v-21.989c16.052-2.818 32.568-4.296 49.422-4.296s33.343 1.477 49.422 4.296v21.989c-16.033-3.046-32.532-4.66-49.422-4.66zM535.608 344.258l44.753-44.734c-18.724-27.433-42.464-51.164-69.897-69.879l-44.734 44.725c28.646 17.182 52.715 41.251 69.888 69.888zM529.771 391.738l-19.389-32.34c-14.665-24.451-35.341-45.118-59.792-59.783l-32.34-19.389 88.648-88.657 20.146 13.744c30.626 20.876 56.727 47.005 77.622 77.604l13.735 20.156-88.621 88.657zM449.905 290.194l15.814-15.814c28.646 17.182 52.715 41.251 69.888 69.888l-15.805 15.814c-16.362-29.248-40.63-53.526-69.897-69.888zM510.463 229.645l15.532-15.523c27.123 19.070 50.79 42.737 69.879 69.879l-15.504 15.523c-18.715-27.433-42.464-51.173-69.897-69.879zM621.483 497.395c3.037-16.006 4.66-32.532 4.66-49.404 0-16.881-1.623-33.398-4.66-49.422h-63.303c3.986 15.833 6.12 32.377 6.12 49.422s-2.134 33.59-6.12 49.404h63.303zM645.843 526.844h-125.43l9.23-36.627c3.475-13.744 5.226-27.962 5.226-42.217s-1.751-28.464-5.226-42.226l-9.23-36.627h125.43l4.551 23.931c3.438 18.067 5.171 36.545 5.171 54.922 0 18.359-1.733 36.836-5.171 54.913l-4.551 23.95zM542.685 447.991c0-17.128-2.408-33.708-6.867-49.422h22.363c3.986 15.833 6.12 32.377 6.12 49.422s-2.134 33.59-6.12 49.404h-22.363c4.46-15.723 6.867-32.276 6.867-49.404zM626.135 447.991c0-16.881-1.623-33.398-4.66-49.422h21.989c2.809 16.052 4.277 32.568 4.277 49.422s-1.477 33.343-4.277 49.404h-21.989c3.046-16.006 4.66-32.523 4.66-49.404zM510.463 666.346c27.433-18.724 51.173-42.454 69.897-69.888l-44.753-44.753c-17.173 28.656-41.241 52.705-69.888 69.888l44.734 44.753zM506.897 704.405l-88.648-88.648 32.34-19.399c24.451-14.656 45.118-35.341 59.783-59.783l19.399-32.34 88.63 88.648-13.735 20.146c-20.885 30.616-46.987 56.718-77.622 77.604l-20.156 13.762zM519.802 535.891l15.805 15.814c-17.173 28.656-41.241 52.705-69.888 69.888l-15.814-15.814c29.267-16.371 53.535-40.621 69.897-69.888zM580.36 596.458l15.504 15.523c-19.070 27.123-42.755 50.79-69.879 69.888l-15.532-15.523c27.433-18.724 51.182-42.454 69.897-69.888zM319.715 523.588c0-18.405-14.921-33.325-33.325-33.325s-33.325 14.921-33.325 33.325c0 18.405 14.921 33.325 33.325 33.325s33.325-14.921 33.325-33.325zM470.937 372.385c0-18.414-14.921-33.334-33.334-33.334s-33.334 14.921-33.334 33.334c0 18.414 14.921 33.334 33.334 33.334s33.334-14.921 33.334-33.334zM312.638 520.524l121.836-121.836-23.111-23.111-121.836 121.836 23.111 23.111zM470.937 523.588c0-18.414-14.921-33.334-33.334-33.334s-33.334 14.921-33.334 33.334c0 18.414 14.921 33.334 33.334 33.334s33.334-14.921 33.334-33.334zM319.715 372.385c0-18.405-14.921-33.325-33.325-33.325s-33.325 14.921-33.325 33.325c0 18.405 14.921 33.325 33.325 33.325s33.325-14.921 33.325-33.325zM434.529 497.34l-121.836-121.836-23.12 23.12 121.836 121.836 23.12-23.12zM362.005 85.993c-199.604 0-362.007 162.394-362.007 361.998s162.403 362.016 362.007 362.016c199.622 0 361.998-162.412 361.998-362.016s-162.376-361.998-361.998-361.998zM362.005 780.567c-183.379 0-332.567-149.197-332.567-332.576s149.188-332.567 332.567-332.567c183.388 0 332.576 149.188 332.576 332.567s-149.188 332.576-332.576 332.576z" />
<glyph unicode="&#xe906;" glyph-name="icons-slots" horiz-adv-x="724" d="M-0.002 240.642v414.716h261.019v-414.716h-261.019zM29.516 625.848v-355.679h201.974v355.679h-201.974zM231.491 240.642v414.716h261.019v-414.716h-261.019zM261.009 625.848v-355.679h201.974v355.679h-201.974zM462.983 240.642v414.716h261.019v-414.716h-261.019zM492.502 625.848v-355.679h201.974v355.679h-201.974zM193.115 556.448v-28.393l-67.344-186.195h-42.254l66.016 175.961v0.656h-73.278v37.963h116.86zM420.43 556.448v-28.393l-67.344-186.195h-42.254l66.016 175.961v0.656h-73.278v37.963h116.86zM647.753 556.448v-28.393l-67.344-186.195h-42.254l66.024 175.961v0.656h-73.286v37.963h116.86z" />
<glyph unicode="&#xe907;" glyph-name="icons-videopoker" horiz-adv-x="724" d="M629.98-3.447h-535.961c-51.846 0-94.022 42.176-94.022 94.022v714.851c0 51.846 42.176 94.022 94.022 94.022h535.961c51.846 0 94.022-42.176 94.022-94.022v-714.851c0-51.846-42.176-94.022-94.022-94.022zM94.019 858.451c-29.248 0-53.037-23.789-53.037-53.037v-714.851c0-29.248 23.789-53.037 53.037-53.037h535.961c29.248 0 53.037 23.789 53.037 53.037v714.851c0 29.248-23.789 53.037-53.037 53.037h-535.961zM357.148 274.507c-4.043 0-8.109 1.191-11.625 3.617-2.123 1.449-52.048 35.863-68.84 48.881l-3.459 2.651c-34.695 26.664-76.792 61.382-94.336 93.325-21.341 38.862-21.599 85.665-0.674 119.237 43.726 70.12 102.693 70.334 144.486 58.147 0.809-0.247 1.595-0.517 2.381-0.865 1.269-0.562 20.959-9.233 36.548-27.069 18.252 18.971 48.173 34.751 93.179 30.191 34.774-3.493 62.91-19.757 81.397-47.005 23.104-34.066 25.44-77.286 17.51-105.007-13.152-45.938-40.098-71.816-88.395-106.186-21.183-15.096-40.367-27.597-55.789-37.638-17.488-11.389-31.314-20.397-38.727-27.035-3.864-3.482-8.761-5.245-13.658-5.245zM282.501 565.48c-28.158 0-50.644-14.714-69.514-44.961-10.816-17.364-14.467-48.14 1.831-77.814 15.657-28.495 66.627-67.661 83.385-80.544l3.583-2.741c10.974-8.514 38.424-27.72 54.587-38.952 8.278 5.987 18.488 12.625 30.82 20.655 15.871 10.356 33.875 22.082 54.373 36.683 42.277 30.101 62.831 49.386 72.749 84.104 5.301 18.499 2.864 48.735-12.018 70.716-11.625 17.117-28.978 26.968-51.588 29.248-58.72 5.93-70.794-34.976-71.289-36.717-2.606-9.39-11.513-15.702-21.172-14.927-9.716 0.685-17.6 8.109-18.881 17.758-2.482 18.802-24.766 31.011-29.663 33.471-9.626 2.673-18.69 4.043-27.215 4.043z" />
<glyph unicode="&#xe908;" glyph-name="st" d="M409.165-64.093l-100.056 166.76-170.929-95.887 118.121 389.106 37.521-11.117-90.328-297.388 119.511 66.704 72.263-119.511 69.483 262.646 37.521-11.117zM614.835-64.093l-94.497 352.975 37.521 11.117 70.873-265.426 72.263 119.511 119.511-66.704-87.549 291.829 37.521 11.117 115.342-383.547-170.929 95.887zM567.586 921.178c8.338 0 18.066-5.559 22.235-15.286 6.948-12.507 19.455-19.455 31.962-19.455 5.559 0 11.117 1.39 16.676 4.169 4.169 2.779 9.728 2.779 13.897 2.779 12.507 0 22.235-8.338 25.014-22.235 2.779-18.066 18.066-30.573 36.131-30.573 1.39 0 4.169 0 5.559 0s4.169 0 5.559 0c16.676 0 27.793-12.507 25.014-30.573-2.779-19.455 11.117-38.911 30.573-41.69s27.793-20.845 19.455-37.521c-8.338-18.066-1.39-40.3 15.286-48.638 18.066-9.728 20.845-27.793 6.948-41.69s-13.897-37.521 0-51.418c13.897-13.897 11.117-33.352-6.948-41.69-18.066-9.728-25.014-30.573-15.286-48.638 8.338-18.066 0-34.742-19.455-37.521s-33.352-22.235-30.573-41.69c2.779-18.066-8.338-30.573-25.014-30.573-1.39 0-2.779 0-5.559 0-1.39 0-4.169 0-5.559 0-18.066 0-33.352-12.507-36.131-30.573-2.779-13.897-12.507-22.235-25.014-22.235-4.169 0-9.728 1.39-13.897 2.779-5.559 2.779-11.117 4.169-16.676 4.169-13.897 0-26.404-6.948-31.962-19.455-5.559-9.728-13.897-15.286-22.235-15.286-6.948 0-13.897 2.779-19.455 8.338-6.948 6.948-16.676 11.117-25.014 11.117-9.728 0-18.066-4.169-25.014-11.117-5.559-5.559-12.507-8.338-19.455-8.338-8.338 0-18.066 5.559-22.235 15.286-8.338 11.117-20.845 19.455-34.742 19.455-5.559 0-11.117-1.39-16.676-4.169-4.169-2.779-9.728-2.779-13.897-2.779-12.507 0-22.235 8.338-25.014 22.235-2.779 18.066-18.066 30.573-36.131 30.573-1.39 0-4.169 0-5.559 0s-4.169 0-5.559 0c-16.676 0-27.793 12.507-25.014 30.573 2.779 19.455-11.117 38.911-30.573 41.69s-27.793 20.845-19.455 37.521c8.338 18.066 1.39 40.3-15.286 48.638-18.066 9.728-20.845 27.793-6.948 41.69s13.897 37.521 0 51.418c-13.897 13.897-11.117 33.352 6.948 41.69 18.066 9.728 25.014 30.573 15.286 48.638-8.338 18.066 0 34.742 19.455 37.521s33.352 22.235 30.573 41.69c-2.779 18.066 8.338 30.573 25.014 30.573 1.39 0 2.779 0 5.559 0 1.39 0 4.169 0 5.559 0 18.066 0 33.352 12.507 36.131 30.573 2.779 13.897 12.507 22.235 25.014 22.235 4.169 0 9.728-1.39 13.897-2.779 5.559-2.779 11.117-4.169 16.676-4.169 13.897 0 26.404 6.948 31.962 19.455 5.559 9.728 13.897 15.286 22.235 15.286 6.948 0 13.897-2.779 19.455-8.338 6.948-6.948 16.676-11.117 25.014-11.117 9.728 0 18.066 4.169 25.014 11.117 8.338 5.559 15.286 8.338 22.235 8.338zM567.586 960.089c-16.676 0-31.962-6.948-44.469-18.066-12.507 12.507-29.183 18.066-44.469 18.066-23.624 0-44.469-12.507-55.587-34.742-9.728 4.169-19.455 6.948-29.183 6.948-30.573 0-55.587-22.235-62.535-52.807-2.779 0-5.559 0-8.338 0-19.455 0-37.521-8.338-48.638-22.235-12.507-13.897-16.676-31.962-15.286-51.418-20.845-4.169-37.521-16.676-45.859-33.352-8.338-18.066-8.338-38.911 0-56.976-18.066-9.728-30.573-26.404-33.352-47.249-2.779-19.455 2.779-38.911 18.066-54.197-13.897-15.286-20.845-34.742-18.066-54.197s15.286-36.131 33.352-47.249c-8.338-19.455-8.338-40.3 0-56.976 8.338-18.066 26.404-29.183 45.859-33.352-4.169-19.455 1.39-37.521 12.507-51.418 12.507-13.897 29.183-22.235 48.638-22.235 2.779 0 5.559 0 8.338 0 5.559-31.962 31.962-52.807 62.535-52.807 9.728 0 19.455 2.779 29.183 6.948 12.507-22.235 33.352-34.742 55.587-34.742 16.676 0 31.962 6.948 44.469 18.066 12.507-12.507 29.183-18.066 44.469-18.066 23.624 0 44.469 12.507 55.587 34.742 9.728-4.169 19.455-6.948 29.183-6.948 30.573 0 55.587 22.235 62.535 52.807 2.779 0 5.559 0 8.338 0 19.455 0 37.521 8.338 48.638 22.235 12.507 13.897 16.676 31.962 15.286 51.418 20.845 4.169 37.521 16.676 45.859 33.352 8.338 18.066 8.338 38.911 0 56.976 18.066 9.728 30.573 26.404 33.352 47.249 2.779 19.455-2.779 38.911-18.066 54.197 13.897 15.286 20.845 34.742 18.066 54.197s-15.286 36.131-33.352 47.249c8.338 19.455 8.338 40.3 0 56.976-8.338 18.066-26.404 29.183-45.859 33.352 2.779 19.455-2.779 37.521-15.286 51.418s-29.183 22.235-48.638 22.235c-2.779 0-5.559 0-8.338 0-5.559 31.962-31.962 52.807-62.535 52.807-9.728 0-19.455-2.779-29.183-6.948-8.338 22.235-29.183 34.742-52.807 34.742v0zM459.192 746.081h98.666v-257.088h-43.080v219.567h-55.587v37.521zM523.117 355.585c-143.135 0-259.867 116.732-259.867 259.867s116.732 258.477 259.867 258.477c143.135 0 259.867-116.732 259.867-259.867s-118.121-258.477-259.867-258.477zM523.117 835.019c-122.29 0-220.957-98.666-220.957-220.957s98.666-220.957 220.957-220.957 220.957 98.666 220.957 220.957-100.056 220.957-220.957 220.957z" />
<glyph unicode="&#xe909;" glyph-name="nd" d="M409.165-64.093l-100.056 166.76-170.929-95.887 118.121 389.106 36.131-11.117-88.938-297.388 119.511 66.704 72.263-119.511 69.483 262.646 37.521-11.117zM614.835-64.093l-94.497 352.975 37.521 11.117 70.873-265.426 72.263 119.511 119.511-66.704-87.549 291.829 37.521 11.117 115.342-383.547-170.929 95.887zM567.586 921.178c8.338 0 18.066-5.559 22.235-15.286 6.948-12.507 19.455-19.455 31.962-19.455 5.559 0 11.117 1.39 16.676 4.169 4.169 2.779 9.728 2.779 13.897 2.779 12.507 0 22.235-8.338 25.014-22.235 2.779-18.066 18.066-30.573 36.131-30.573 1.39 0 4.169 0 5.559 0s4.169 0 5.559 0c16.676 0 27.793-12.507 25.014-30.573-2.779-19.455 11.117-38.911 30.573-41.69s27.793-20.845 19.455-37.521c-8.338-18.066-1.39-40.3 15.286-48.638 18.066-9.728 20.845-27.793 6.948-41.69s-13.897-37.521 0-51.418c13.897-13.897 11.117-33.352-6.948-41.69-18.066-9.728-25.014-30.573-15.286-48.638 8.338-18.066 0-34.742-19.455-37.521s-33.352-22.235-30.573-41.69c2.779-18.066-8.338-30.573-25.014-30.573-1.39 0-2.779 0-5.559 0-1.39 0-4.169 0-5.559 0-18.066 0-33.352-12.507-36.131-30.573-2.779-13.897-12.507-22.235-25.014-22.235-4.169 0-9.728 1.39-13.897 2.779-5.559 2.779-11.117 4.169-16.676 4.169-13.897 0-26.404-6.948-31.962-19.455-5.559-9.728-13.897-15.286-22.235-15.286-6.948 0-13.897 2.779-19.455 8.338-6.948 6.948-16.676 11.117-25.014 11.117-9.728 0-18.066-4.169-25.014-11.117-5.559-5.559-12.507-8.338-19.455-8.338-8.338 0-18.066 5.559-22.235 15.286-8.338 11.117-20.845 19.455-34.742 19.455-5.559 0-11.117-1.39-16.676-4.169-4.169-2.779-9.728-2.779-13.897-2.779-12.507 0-22.235 8.338-25.014 22.235-2.779 18.066-18.066 30.573-36.131 30.573-1.39 0-4.169 0-5.559 0s-4.169 0-5.559 0c-16.676 0-27.793 12.507-25.014 30.573 2.779 19.455-11.117 38.911-30.573 41.69s-27.793 20.845-19.455 37.521c8.338 18.066 1.39 40.3-15.286 48.638-18.066 9.728-20.845 27.793-6.948 41.69s13.897 37.521 0 51.418c-13.897 13.897-11.117 33.352 6.948 41.69 18.066 9.728 25.014 30.573 15.286 48.638-8.338 18.066 0 34.742 19.455 37.521s33.352 22.235 30.573 41.69c-2.779 18.066 8.338 30.573 25.014 30.573 1.39 0 2.779 0 5.559 0 1.39 0 4.169 0 5.559 0 18.066 0 33.352 12.507 36.131 30.573 2.779 13.897 12.507 22.235 25.014 22.235 4.169 0 9.728-1.39 13.897-2.779 5.559-2.779 11.117-4.169 16.676-4.169 13.897 0 26.404 6.948 31.962 19.455 5.559 9.728 13.897 15.286 22.235 15.286 6.948 0 13.897-2.779 19.455-8.338 6.948-6.948 16.676-11.117 25.014-11.117 9.728 0 18.066 4.169 25.014 11.117 8.338 5.559 15.286 8.338 22.235 8.338zM567.586 960.089c-16.676 0-31.962-6.948-44.469-18.066-12.507 12.507-29.183 18.066-44.469 18.066-23.624 0-44.469-12.507-55.587-34.742-9.728 4.169-19.455 6.948-29.183 6.948-30.573 0-55.587-22.235-62.535-52.807-2.779 0-5.559 0-8.338 0-19.455 0-37.521-8.338-48.638-22.235-12.507-13.897-16.676-31.962-15.286-51.418-20.845-4.169-37.521-16.676-45.859-33.352-8.338-18.066-8.338-38.911 0-56.976-18.066-9.728-30.573-26.404-33.352-47.249-2.779-19.455 2.779-38.911 18.066-54.197-13.897-15.286-20.845-34.742-18.066-54.197s15.286-36.131 33.352-47.249c-8.338-19.455-8.338-40.3 0-56.976 8.338-18.066 26.404-29.183 45.859-33.352-4.169-19.455 1.39-37.521 12.507-51.418 12.507-13.897 29.183-22.235 48.638-22.235 2.779 0 5.559 0 8.338 0 5.559-31.962 31.962-52.807 62.535-52.807 9.728 0 19.455 2.779 29.183 6.948 12.507-22.235 33.352-34.742 55.587-34.742 16.676 0 31.962 6.948 44.469 18.066 12.507-12.507 29.183-18.066 44.469-18.066 23.624 0 44.469 12.507 55.587 34.742 9.728-4.169 19.455-6.948 29.183-6.948 30.573 0 55.587 22.235 62.535 52.807 2.779 0 5.559 0 8.338 0 19.455 0 37.521 8.338 48.638 22.235 12.507 13.897 16.676 31.962 15.286 51.418 20.845 4.169 37.521 16.676 45.859 33.352 8.338 18.066 8.338 38.911 0 56.976 18.066 9.728 30.573 26.404 33.352 47.249 2.779 19.455-2.779 38.911-18.066 54.197 13.897 15.286 20.845 34.742 18.066 54.197s-15.286 36.131-33.352 47.249c8.338 19.455 8.338 40.3 0 56.976-8.338 18.066-26.404 29.183-45.859 33.352 2.779 19.455-2.779 37.521-15.286 51.418s-29.183 22.235-48.638 22.235c-2.779 0-5.559 0-8.338 0-5.559 31.962-31.962 52.807-62.535 52.807-9.728 0-19.455-2.779-29.183-6.948-8.338 22.235-29.183 34.742-52.807 34.742v0zM430.010 519.566l102.835 104.225c18.066 18.066 23.624 29.183 23.624 45.859 0 23.624-18.066 43.080-47.249 43.080-30.573 0-52.807-22.235-59.756-27.793l-22.235 33.352c0 0 31.962 34.742 86.159 34.742 59.756 0 93.107-36.131 93.107-79.211 0-25.014-6.948-45.859-29.183-66.704l-79.211-79.211h112.563v-37.521h-180.656v29.183zM523.117 355.585c-143.135 0-259.867 116.732-259.867 259.867s116.732 258.477 259.867 258.477 259.867-116.732 259.867-259.867-118.121-258.477-259.867-258.477zM523.117 835.019c-122.29 0-220.957-98.666-220.957-220.957s98.666-220.957 220.957-220.957 220.957 98.666 220.957 220.957-100.056 220.957-220.957 220.957z" />
<glyph unicode="&#xe90a;" glyph-name="rd" d="M409.165-64.093l-100.056 166.76-170.929-95.887 118.121 389.106 36.131-11.117-88.938-297.388 119.511 66.704 72.263-119.511 69.483 262.646 37.521-11.117zM614.835-64.093l-94.497 352.975 37.521 11.117 70.873-265.426 72.263 119.511 119.511-66.704-87.549 291.829 37.521 11.117 115.342-383.547-170.929 95.887zM567.586 921.178c8.338 0 18.066-5.559 22.235-15.286 6.948-12.507 19.455-19.455 31.962-19.455 5.559 0 11.117 1.39 16.676 4.169 4.169 2.779 9.728 2.779 13.897 2.779 12.507 0 22.235-8.338 25.014-22.235 2.779-18.066 18.066-30.573 36.131-30.573 1.39 0 4.169 0 5.559 0s4.169 0 5.559 0c16.676 0 27.793-12.507 25.014-30.573-2.779-19.455 11.117-38.911 30.573-41.69s27.793-20.845 19.455-37.521c-8.338-18.066-1.39-40.3 15.286-48.638 18.066-9.728 20.845-27.793 6.948-41.69s-13.897-37.521 0-51.418c13.897-13.897 11.117-33.352-6.948-41.69-18.066-9.728-25.014-30.573-15.286-48.638 8.338-18.066 0-34.742-19.455-37.521s-33.352-22.235-30.573-41.69c2.779-18.066-8.338-30.573-25.014-30.573-1.39 0-2.779 0-5.559 0-1.39 0-4.169 0-5.559 0-18.066 0-33.352-12.507-36.131-30.573-2.779-13.897-12.507-22.235-25.014-22.235-4.169 0-9.728 1.39-13.897 2.779-5.559 2.779-11.117 4.169-16.676 4.169-13.897 0-26.404-6.948-31.962-19.455-5.559-9.728-13.897-15.286-22.235-15.286-6.948 0-13.897 2.779-19.455 8.338-6.948 6.948-16.676 11.117-25.014 11.117-9.728 0-18.066-4.169-25.014-11.117-5.559-5.559-12.507-8.338-19.455-8.338-8.338 0-18.066 5.559-22.235 15.286-8.338 11.117-20.845 19.455-34.742 19.455-5.559 0-11.117-1.39-16.676-4.169-4.169-2.779-9.728-2.779-13.897-2.779-12.507 0-22.235 8.338-25.014 22.235-2.779 18.066-18.066 30.573-36.131 30.573-1.39 0-4.169 0-5.559 0s-4.169 0-5.559 0c-16.676 0-27.793 12.507-25.014 30.573 2.779 19.455-11.117 38.911-30.573 41.69s-27.793 20.845-19.455 37.521c8.338 18.066 1.39 40.3-15.286 48.638-18.066 9.728-20.845 27.793-6.948 41.69s13.897 37.521 0 51.418c-13.897 13.897-11.117 33.352 6.948 41.69 18.066 9.728 25.014 30.573 15.286 48.638-8.338 18.066 0 34.742 19.455 37.521s33.352 22.235 30.573 41.69c-2.779 18.066 8.338 30.573 25.014 30.573 1.39 0 2.779 0 5.559 0 1.39 0 4.169 0 5.559 0 18.066 0 33.352 12.507 36.131 30.573 2.779 13.897 12.507 22.235 25.014 22.235 4.169 0 9.728-1.39 13.897-2.779 5.559-2.779 11.117-4.169 16.676-4.169 13.897 0 26.404 6.948 31.962 19.455 5.559 9.728 13.897 15.286 22.235 15.286 6.948 0 13.897-2.779 19.455-8.338 6.948-6.948 16.676-11.117 25.014-11.117 9.728 0 18.066 4.169 25.014 11.117 8.338 5.559 15.286 8.338 22.235 8.338zM567.586 960.089c-16.676 0-31.962-6.948-44.469-18.066-12.507 12.507-29.183 18.066-44.469 18.066-23.624 0-44.469-12.507-55.587-34.742-9.728 4.169-19.455 6.948-29.183 6.948-30.573 0-55.587-22.235-62.535-52.807-2.779 0-5.559 0-8.338 0-19.455 0-37.521-8.338-48.638-22.235-12.507-13.897-16.676-31.962-15.286-51.418-20.845-4.169-37.521-16.676-45.859-33.352-8.338-18.066-8.338-38.911 0-56.976-18.066-9.728-30.573-26.404-33.352-47.249-2.779-19.455 2.779-38.911 18.066-54.197-13.897-15.286-20.845-34.742-18.066-54.197s15.286-36.131 33.352-47.249c-8.338-19.455-8.338-40.3 0-56.976 8.338-18.066 26.404-29.183 45.859-33.352-4.169-19.455 1.39-37.521 12.507-51.418 12.507-13.897 29.183-22.235 48.638-22.235 2.779 0 5.559 0 8.338 0 5.559-31.962 31.962-52.807 62.535-52.807 9.728 0 19.455 2.779 29.183 6.948 12.507-22.235 33.352-34.742 55.587-34.742 16.676 0 31.962 6.948 44.469 18.066 12.507-12.507 29.183-18.066 44.469-18.066 23.624 0 44.469 12.507 55.587 34.742 9.728-4.169 19.455-6.948 29.183-6.948 30.573 0 55.587 22.235 62.535 52.807 2.779 0 5.559 0 8.338 0 19.455 0 37.521 8.338 48.638 22.235 12.507 13.897 16.676 31.962 15.286 51.418 20.845 4.169 37.521 16.676 45.859 33.352 8.338 18.066 8.338 38.911 0 56.976 18.066 9.728 30.573 26.404 33.352 47.249 2.779 19.455-2.779 38.911-18.066 54.197 13.897 15.286 20.845 34.742 18.066 54.197s-15.286 36.131-33.352 47.249c8.338 19.455 8.338 40.3 0 56.976-8.338 18.066-26.404 29.183-45.859 33.352 2.779 19.455-2.779 37.521-15.286 51.418s-29.183 22.235-48.638 22.235c-2.779 0-5.559 0-8.338 0-5.559 31.962-31.962 52.807-62.535 52.807-9.728 0-19.455-2.779-29.183-6.948-8.338 22.235-29.183 34.742-52.807 34.742v0zM478.648 608.504v26.404l68.094 73.652h-113.952v37.521h170.929v-31.962l-68.094-70.873c48.638-4.169 70.873-29.183 70.873-73.652s-29.183-84.769-95.887-84.769c-59.756 0-86.159 36.131-86.159 36.131l23.624 30.573c0 0 23.624-27.793 61.145-27.793 36.131 0 52.807 20.845 52.807 44.469 0 25.014-13.897 41.69-50.028 41.69h-33.352zM523.117 355.585c-143.135 0-259.867 116.732-259.867 259.867s116.732 258.477 259.867 258.477 259.867-116.732 259.867-259.867-118.121-258.477-259.867-258.477zM523.117 835.019c-122.29 0-220.957-98.666-220.957-220.957s98.666-220.957 220.957-220.957 220.957 98.666 220.957 220.957-100.056 220.957-220.957 220.957z" />
<glyph unicode="&#xe90b;" glyph-name="uniE903" d="M512 891.733c245.435 0 443.733-198.298 443.733-443.733s-199.924-443.733-443.733-443.733-443.733 198.298-443.733 443.733 198.298 443.733 443.733 443.733zM512 960c-282.819 0-512-229.181-512-512s229.181-512 512-512 512 229.181 512 512c0 282.819-229.181 512-512 512v0zM206.425 591.035h120.279v-273.067h-65.016v216.178h-55.263v56.889zM372.215 399.238c0 27.632 11.378 48.762 32.508 61.765-16.254 14.629-24.381 34.133-24.381 55.263 0 43.886 32.508 79.644 102.4 79.644s102.4-37.384 102.4-79.644c0-21.13-8.127-40.635-26.006-55.263 21.13-13.003 32.508-35.759 32.508-61.765 0-48.762-39.010-86.146-108.902-86.146s-110.527 37.384-110.527 86.146zM481.117 436.622c-22.756 0-39.010-16.254-39.010-34.133s16.254-34.133 39.010-34.133c24.381 0 39.010 16.254 39.010 34.133s-14.629 34.133-39.010 34.133zM515.25 509.765c0 16.254-14.629 29.257-34.133 29.257s-34.133-13.003-34.133-29.257c0-16.254 14.629-29.257 34.133-29.257s34.133 13.003 34.133 29.257zM747.682 477.257h73.143v-52.013h-73.143v-69.892h-52.013v69.892h-73.143v52.013h73.143v74.768h52.013v-74.768z" />
<glyph unicode="&#xe90c;" glyph-name="android" d="M740.017 960.092h-456.034c-37.877 0-69.693-31.816-69.693-69.693v-884.796c0-37.877 31.816-69.693 69.693-69.693h456.034c37.877 0 69.693 31.816 69.693 69.693v884.796c0 37.877-31.816 69.693-69.693 69.693v0zM440.035 910.095h145.446c4.545 0 9.090-3.030 9.090-9.090 0-4.545-3.030-7.575-9.090-7.575h-145.446c-4.545 0-9.090 3.030-9.090 7.575s4.545 9.090 9.090 9.090v0zM512.758-27.729c-19.696 0-34.846 15.151-34.846 34.846s15.151 34.846 34.846 34.846c19.696 0 34.846-15.151 34.846-34.846s-16.666-34.846-34.846-34.846v0zM761.228 64.69h-496.94v784.802h498.456v-784.802zM568.815 623.748l9.090 15.151 10.605 15.151c1.515 1.515 0 4.545-1.515 6.060s-4.545 0-6.060-1.515l-10.605-16.666-9.090-15.151c-15.151 6.060-31.816 9.090-48.482 9.090-18.181 0-33.331-3.030-48.482-9.090l-9.090 15.151-10.605 16.666c-1.515 1.515-4.545 3.030-6.060 1.515s-3.030-4.545-1.515-6.060l10.605-15.151 9.090-15.151c-34.846-16.666-59.087-46.967-59.087-81.813h230.289c0 34.846-24.241 65.148-59.087 81.813zM462.761 573.751c-7.575 0-12.12 6.060-12.12 12.12s6.060 12.12 12.12 12.12c6.060 0 12.12-6.060 12.12-12.12s-4.545-12.12-12.12-12.12zM561.24 573.751c-6.060 0-12.12 6.060-12.12 12.12s6.060 12.12 12.12 12.12c7.575 0 12.12-6.060 12.12-12.12s-4.545-12.12-12.12-12.12zM399.128 523.754h-1.515v-181.807c0-13.636 12.12-25.756 25.756-25.756h18.181c0-1.515-1.515-4.545-1.515-7.575v-49.997c0-13.636 10.605-24.241 24.241-24.241s24.241 10.605 24.241 24.241v51.512c0 3.030 0 4.545-1.515 7.575h45.452c0-1.515-1.515-4.545-1.515-7.575v-51.512c0-13.636 10.605-24.241 24.241-24.241s24.241 10.605 24.241 24.241v51.512c0 3.030 0 4.545-1.515 7.575h18.181c13.636 0 25.756 12.12 25.756 25.756v181.807h-222.714zM356.706 523.754c-13.636 0-24.241-10.605-24.241-24.241v-106.054c0-13.636 10.605-24.241 24.241-24.241s24.241 10.605 24.241 24.241v106.054c0 13.636-10.605 24.241-24.241 24.241zM668.809 523.754c-13.636 0-24.241-10.605-24.241-24.241v-106.054c0-13.636 10.605-24.241 24.241-24.241s24.241 10.605 24.241 24.241v106.054c0 13.636-10.605 24.241-24.241 24.241z" />
<glyph unicode="&#xe90d;" glyph-name="arrow-left" d="M716.461-64.091l-512.091 512.091 512.091 512.091 103.169-105.044-407.047-407.047 407.047-407.047z" />
<glyph unicode="&#xe90e;" glyph-name="arrow-right" d="M307.539-64.091l-103.169 105.044 407.047 407.047-407.047 407.047 103.169 105.044 512.091-512.091z" />
<glyph unicode="&#xe90f;" glyph-name="bingo" d="M512 891.733c245.435 0 443.733-198.298 443.733-443.733s-199.924-443.733-443.733-443.733-443.733 198.298-443.733 443.733 198.298 443.733 443.733 443.733zM512 960c-282.819 0-512-229.181-512-512s229.181-512 512-512 512 229.181 512 512-229.181 512-512 512v0zM512 735.695c159.289 0 287.695-128.406 287.695-287.695s-128.406-287.695-287.695-287.695-287.695 128.406-287.695 287.695 128.406 287.695 287.695 287.695zM512 781.206c-183.67 0-333.206-149.537-333.206-333.206s149.537-333.206 333.206-333.206 333.206 149.537 333.206 333.206-149.537 333.206-333.206 333.206v0zM368.965 421.993v30.883l43.886 47.137h-81.27v45.511h151.162v-37.384l-45.511-48.762c35.759-8.127 53.638-29.257 53.638-65.016 0-39.010-27.632-71.517-91.022-71.517-52.013 0-78.019 29.257-78.019 29.257l27.632 39.010c0 0 21.13-21.13 48.762-21.13 24.381 0 35.759 9.752 35.759 24.381s-9.752 24.381-35.759 24.381h-29.257zM518.501 365.105l81.27 76.394c11.378 11.378 14.629 17.879 14.629 30.883 0 14.629-11.378 26.006-29.257 26.006s-30.883-8.127-45.511-19.505l-27.632 42.26c0 0 29.257 29.257 79.644 29.257 55.263 0 86.146-32.508 86.146-69.892 0-24.381-6.502-43.886-26.006-60.14l-48.762-47.137h78.019v-45.511h-162.54v37.384z" />
<glyph unicode="&#xe910;" glyph-name="casino" d="M841.956 412.241c0 0 1.625-19.505-8.127-43.886l63.39-34.133c30.883 42.26 16.254 87.771 16.254 87.771l-71.517-9.752zM378.718 152.178l-1.625 1.625-48.762-61.765 1.625-1.625c27.632-27.632 58.514-32.508 76.394-32.508 3.251 0 8.127 0 11.378 0h3.251l1.625 74.768v3.251h-3.251c0 1.625-19.505 3.251-40.635 16.254v0zM414.476 64.407c-1.625 0-4.876 0-8.127 0-14.629 0-43.886 3.251-69.892 27.632l40.635 53.638c16.254-9.752 30.883-13.003 37.384-14.629v-66.641zM240.559 638.172l-48.762 53.638c-43.886-29.257-43.886-76.394-45.511-78.019l71.517-14.629c1.625 0 6.502 19.505 22.756 39.010v0zM742.807 685.308l1.625-1.625 66.641 40.635-1.625 3.251c-21.13 47.137-65.016 58.514-71.517 60.14h-3.251l-27.632-69.892-1.625-3.251h3.251c1.625-1.625 19.505-11.378 34.133-29.257v0zM741.181 779.581c9.752-3.251 43.886-14.629 63.39-52.013l-56.889-35.759c-11.378 14.629-24.381 22.756-30.883 26.006l24.381 61.765zM707.048 181.435l27.632-66.641c52.013 13.003 68.267 56.889 68.267 56.889l-61.765 39.010c0-1.625-13.003-16.254-34.133-29.257v0zM243.81 269.207l-3.251 1.625c0 0-13.003 14.629-21.13 37.384l-1.625 3.251-76.394-16.254v-3.251c3.251-52.013 42.26-76.394 45.511-79.644l1.625-1.625 50.387 56.889 4.876 1.625zM188.546 218.819c-8.127 6.502-37.384 29.257-40.635 71.517l65.016 14.629c6.502-17.879 16.254-29.257 19.505-35.759l-43.886-50.387zM425.854 769.829l-3.251 73.143c-52.013 4.876-82.895-29.257-84.521-30.883l45.511-56.889c0-1.625 16.254 9.752 42.26 14.629v0zM902.095 563.403l-1.625 1.625-66.641-35.759-3.251-1.625 1.625-3.251c0 0 8.127-17.879 8.127-42.26v-3.251l78.019-11.378v3.251c14.629 50.387-13.003 87.771-16.254 92.648v0zM913.473 475.632l-66.641 9.752c0 17.879-4.876 34.133-6.502 39.010l58.514 30.883c6.502-6.502 24.381-37.384 14.629-79.644v0zM489.245 121.295l-22.756-68.267c47.137-22.756 89.397 0 89.397 0l-22.756 68.267c0-1.625-19.505-4.876-43.886 0v0zM112.153 475.632l74.768 11.378h3.251l-1.625 3.251c0 0-1.625 19.505 8.127 42.26l1.625 3.251-68.267 37.384-1.625-1.625c-30.883-42.26-17.879-86.146-16.254-91.022v-4.876zM130.032 563.403l60.14-30.883c-6.502-17.879-6.502-32.508-6.502-39.010l-66.641-11.378c-3.251 9.752-9.752 45.511 13.003 81.27v0zM611.149 839.721l-1.625-73.143c0 0 19.505-3.251 42.26-14.629l43.886 56.889c-37.384 39.010-82.895 30.883-84.521 30.883v0zM806.197 306.591v-3.251c0 0-4.876-17.879-21.13-37.384l-1.625-3.251 52.013-58.514 1.625 1.625c42.26 29.257 45.511 74.768 45.511 79.644v3.251l-73.143 16.254-3.251 1.625zM877.714 285.461c-1.625-9.752-6.502-47.137-40.635-71.517l-45.511 50.387c11.378 14.629 17.879 29.257 19.505 34.133l66.641-13.003zM282.819 213.943l-61.765-39.010c21.13-48.762 68.267-56.889 68.267-56.889l27.632 66.641c0 1.625-17.879 9.752-34.133 29.257v0zM294.197 789.334c-50.387-13.003-68.267-55.263-69.892-60.14l-1.625-3.251 63.39-39.010 3.251-1.625 1.625 3.251c0 0 11.378 16.254 32.508 27.632l1.625 1.625-29.257 73.143-1.625-1.625zM286.070 695.061l-56.889 35.759c4.876 9.752 22.756 42.26 63.39 52.013l26.006-61.765c-16.254-9.752-27.632-21.13-32.508-26.006v0zM812.699 592.661l71.517 14.629c-3.251 52.013-43.886 76.394-45.511 78.019l-48.762-53.638c0 0 14.629-14.629 22.756-39.010v0zM645.283 152.178l-3.251-3.251c0 0-16.254-9.752-40.635-14.629h-3.251l3.251-78.019h3.251c3.251 0 8.127 0 11.378 0 43.886 0 69.892 26.006 74.768 32.508l1.625 1.625-47.137 58.514v3.251zM617.651 61.156c-3.251 0-4.876 0-8.127 0l-1.625 66.641c17.879 3.251 32.508 9.752 37.384 13.003l42.26-52.013c-8.127-4.876-32.508-27.632-69.892-27.632v0zM185.295 418.743l-71.517 9.752c-14.629-50.387 14.629-87.771 16.254-87.771l63.39 34.133c-1.625 0-8.127 17.879-8.127 43.886v0zM492.495 776.33l3.251 1.625c0 0 8.127 1.625 21.13 1.625 8.127 0 14.629 0 22.756-1.625h3.251l24.381 74.768-3.251 1.625c-14.629 6.502-29.257 11.378-45.511 11.378-24.381 0-43.886-9.752-47.137-11.378l-1.625-1.625 22.756-71.517v-4.876zM516.876 855.975c14.629 0 27.632-3.251 40.635-9.752l-19.505-61.765c-6.502 1.625-14.629 1.625-21.13 1.625-8.127 0-16.254-1.625-19.505-1.625l-21.13 63.39c6.502 3.251 21.13 8.127 40.635 8.127v0zM564.013 366.73l-16.254 43.886c19.505 13.003 30.883 35.759 26.006 60.14l43.886 16.254c8.127-11.378 24.381-16.254 39.010-11.378 17.879 6.502 27.632 26.006 21.13 43.886s-26.006 27.632-43.886 21.13c-13.003-4.876-22.756-17.879-22.756-32.508l-45.511-16.254c-13.003 19.505-35.759 30.883-58.514 27.632l-14.629 42.26c9.752 9.752 14.629 24.381 9.752 37.384-6.502 17.879-26.006 27.632-43.886 21.13s-27.632-26.006-21.13-43.886c4.876-14.629 19.505-22.756 34.133-22.756l14.629-40.635c-21.13-13.003-32.508-35.759-29.257-60.14l-39.010-14.629c-9.752 9.752-24.381 14.629-37.384 9.752-17.879-6.502-27.632-26.006-21.13-43.886s26.006-27.632 43.886-21.13c14.629 4.876 22.756 19.505 22.756 34.133l39.010 14.629c13.003-21.13 37.384-32.508 61.765-27.632l16.254-42.26c-11.378-8.127-16.254-24.381-11.378-39.010 6.502-17.879 26.006-27.632 43.886-21.13s27.632 26.006 21.13 43.886c-4.876 11.378-17.879 21.13-32.508 21.13v0zM512 960c-282.819 0-512-229.181-512-512s229.181-512 512-512c282.819 0 512 229.181 512 512s-230.806 512-512 512v0zM512 10.768c-240.559 0-437.232 196.673-437.232 437.232s196.673 437.232 437.232 437.232c240.559 0 437.232-196.673 437.232-437.232s-196.673-437.232-437.232-437.232v0z" />
<glyph unicode="&#xe911;" glyph-name="close1" d="M512 328.621l-392.622-392.622-119.378 116.725 395.275 395.275-395.275 392.622 119.378 119.378 392.622-395.275 395.275 395.275 116.725-119.378-392.622-392.622 392.622-395.275-116.725-116.725z" />
<glyph unicode="&#xe912;" glyph-name="club-rouge" d="M984.343 661.156v-426.313h-944.686v426.313h944.686zM1024 700.813h-1024v-505.627h1024v505.627zM471.635 369.394c0 0-19.828-24.077-63.734-24.077-58.069 0-96.31 43.906-96.31 99.142s38.241 99.142 96.31 99.142c43.906 0 63.734-24.077 63.734-24.077l-18.412-24.077c0 0-16.996 18.412-45.322 18.412-38.241 0-63.734-31.159-63.734-69.4 0-39.657 26.91-69.4 63.734-69.4 28.326 0 45.322 18.412 45.322 18.412l18.412-24.077zM611.85 539.352c45.322 0 73.649-24.077 73.649-63.734 0-29.743-15.58-49.571-39.657-58.069v-1.416l45.322-62.318v-4.249h-33.992l-45.322 62.318h-46.739v-62.318h-31.159v189.787h77.898zM610.434 511.026h-45.322v-72.232h46.739c22.661 0 39.657 11.331 39.657 35.408 0 25.494-15.58 36.824-41.073 36.824z" />
<glyph unicode="&#xe913;" glyph-name="club-rouge2" d="M1024-29.075h-1024v819.541h245.351v-66.449h-178.902v-686.642h891.102v686.642h-180.606v66.449h247.055zM667.9 630.306c0 0-34.077-40.892-107.341-40.892-98.822 0-161.864 74.968-161.864 166.975 0 93.71 63.042 166.975 161.864 166.975 73.265 1.704 107.341-37.484 107.341-37.484l-30.669-40.892c0 0-27.261 30.669-76.672 30.669-63.042 0-107.341-51.115-107.341-117.564s44.3-115.86 107.341-115.86c49.411 0 76.672 30.669 76.672 30.669l30.669-42.596zM540.113 483.777c74.968 0 122.676-40.892 122.676-107.341 0-49.411-27.261-83.488-68.153-98.822v-3.408l76.672-103.933v-6.815h-57.93l-76.672 105.637h-76.672v-105.637h-52.819v320.32h132.899zM536.706 437.774h-76.672v-120.972h80.080c39.188 0 68.153 18.742 68.153 59.634s-28.965 61.338-71.561 61.338z" />
<glyph unicode="&#xe914;" glyph-name="deposit1" d="M898.099 829.301c-69.546 0-125.902-56.356-125.902-125.902s56.356-125.902 125.902-125.902 125.902 56.356 125.902 125.902c0 69.546-56.356 125.902-125.902 125.902zM973.64 692.608h-55.157v-55.157h-33.574v55.157h-55.157v33.574h55.157v55.157h33.574v-55.157h55.157v-33.574zM670.277 66.697h-583.944c-46.763 0-86.333 38.37-86.333 86.333v429.265c0 46.763 38.37 86.333 86.333 86.333h583.944c46.763 0 86.333-38.37 86.333-86.333v-100.721h-50.361v100.721c0 19.185-15.588 35.972-35.972 35.972h-583.944c-19.185 0-35.972-15.588-35.972-35.972v-430.464c0-19.185 15.588-35.972 35.972-35.972h583.944c19.185 0 35.972 15.588 35.972 35.972v113.911h50.361v-113.911c-1.199-46.763-39.569-85.133-86.333-85.133zM616.319 630.257l-14.389 61.152c-2.398 7.194-8.393 13.19-15.588 17.986-7.194 3.597-16.787 4.796-25.18 2.398l-241.012-76.74-9.593 32.375 241.012 76.74c34.773 10.792 71.944-8.393 82.735-43.166l14.389-62.351-32.375-8.393zM188.254 636.252l-16.787 28.778 191.85 106.717c32.375 17.986 71.944 5.995 89.93-26.379l17.986-31.176-29.977-16.787-17.986 32.375c-8.393 15.588-28.778 21.583-44.365 13.19l-190.651-106.717zM757.809 240.561h-273.386c-37.171 0-67.148 29.977-67.148 67.148v115.11c0 37.171 29.977 67.148 67.148 67.148h272.187c37.171 0 67.148-29.977 67.148-67.148v-115.11c1.199-37.171-28.778-67.148-65.948-67.148zM484.422 456.393c-17.986 0-33.574-15.588-33.574-33.574v-115.11c0-17.986 15.588-33.574 33.574-33.574h272.187c17.986 0 33.574 15.588 33.574 33.574v115.11c0 17.986-15.588 33.574-33.574 33.574h-272.187zM565.958 366.463c0-20.529-16.641-37.171-37.171-37.171s-37.171 16.641-37.171 37.171c0 20.529 16.641 37.171 37.171 37.171s37.171-16.641 37.171-37.171z" />
<glyph unicode="&#xe915;" glyph-name="deposit2" d="M281.303 533.583c-86.326 0-156.279-69.953-156.279-156.279s69.953-156.279 156.279-156.279 156.279 69.953 156.279 156.279c0 86.326-69.953 156.279-156.279 156.279zM375.071 363.908h-68.465v-68.465h-41.674v68.465h-68.465v41.674h68.465v68.465h41.674v-68.465h68.465v-41.674zM832.001 3.722h-724.837c-58.047 0-107.163 47.628-107.163 107.163v532.837c0 58.047 47.628 107.163 107.163 107.163h724.837c58.047 0 107.163-47.628 107.163-107.163v-125.023h-62.512v125.023c0 23.814-19.349 44.651-44.651 44.651h-724.837c-23.814 0-44.651-19.349-44.651-44.651v-534.326c0-23.814 19.349-44.651 44.651-44.651h724.837c23.814 0 44.651 19.349 44.651 44.651v141.395h62.512v-141.395c-1.488-58.047-49.116-105.674-107.163-105.674zM765.024 703.257l-17.86 75.907c-5.953 19.349-29.767 31.256-50.605 25.302l-299.163-95.256-11.907 40.186 299.163 95.256c43.163 13.395 89.302-10.419 102.698-53.581l17.86-77.395-40.186-10.419zM233.676 710.699l-20.837 37.209 236.651 130.977c19.349 10.419 41.674 13.395 62.512 7.442s38.698-19.349 49.116-38.698l22.326-38.698-35.721-20.837-22.326 38.698c-4.465 8.93-13.395 16.372-23.814 19.349s-20.837 1.488-31.256-2.977l-236.651-132.465zM940.652 219.536h-339.349c-46.14 0-83.349 37.209-83.349 83.349v142.884c0 46.14 37.209 83.349 83.349 83.349h337.86c46.14 0 83.349-37.209 83.349-83.349v-142.884c1.488-46.14-35.721-83.349-81.86-83.349zM601.303 487.443c-22.326 0-41.674-19.349-41.674-41.674v-142.884c0-22.326 19.349-41.674 41.674-41.674h337.86c22.326 0 41.674 19.349 41.674 41.674v142.884c0 22.326-19.349 41.674-41.674 41.674h-337.86zM702.513 375.815c0-25.483-20.657-46.14-46.14-46.14s-46.14 20.657-46.14 46.14c0 25.483 20.657 46.14 46.14 46.14s46.14-20.657 46.14-46.14z" />
<glyph unicode="&#xe916;" glyph-name="download1" d="M508.329 238.794l-244.072 244.072 71.57 71.57 172.502-170.667 170.667 170.667 71.57-71.57zM456.946 923.296h102.767v-612.932h-102.767v612.932zM1024-27.299h-1024v282.609h102.767v-179.842h818.466v179.842h102.767z" />
<glyph unicode="&#xe917;" glyph-name="download2" d="M528.020 435.824l-82.023 82.023 25.632 25.632 56.39-56.39 55.109 56.39 25.632-25.632zM510.077 663.95h35.885v-202.493h-35.885v202.493zM698.473 348.675h-339.625v94.839h35.885v-58.954h267.855v58.954h35.885zM968.891 883.104v1.282h-913.782v-1.282c-29.477-2.563-51.264-25.632-55.109-53.827v-601.071c0-11.534 2.563-21.787 7.69-29.477 11.534-20.506 28.195-30.758 52.546-30.758h383.199v-101.247h-152.511v-55.109h440.871v55.109h-152.511v101.247h383.199c23.069 0 41.011 10.253 52.546 30.758 5.126 8.971 8.971 19.224 8.971 29.477v601.071c-3.845 28.195-26.914 52.546-55.109 53.827zM968.891 824.15v-595.945c0-3.845-1.282-5.126-5.126-5.126h-904.811c-3.845 0-5.126 1.282-5.126 5.126v601.071h913.782v-5.126z" />
<glyph unicode="&#xe918;" glyph-name="email" d="M1024 100.254h-1024v695.487h1024v-695.487zM67.305 167.559h889.39v560.876h-889.39v-560.876zM514.404 308.579l-458.316 403.831 28.845 33.653 429.471-378.191 424.664 374.986 30.448-33.653zM373.101 455.078l29.893-33.464-321.494-287.181-29.893 33.464 321.494 287.181zM663.114 455.893l321.452-287.225-29.897-33.46-321.452 287.225 29.897 33.46z" />
<glyph unicode="&#xe919;" glyph-name="error1" d="M512 891.733c245.435 0 443.733-198.298 443.733-443.733s-199.924-443.733-443.733-443.733-443.733 198.298-443.733 443.733 198.298 443.733 443.733 443.733zM512 960c-282.819 0-512-229.181-512-512s229.181-512 512-512c282.819 0 512 229.181 512 512s-229.181 512-512 512v0zM507.124 353.727c37.384 0 68.267-30.883 68.267-68.267s-30.883-66.641-68.267-66.641c-37.384 0-66.641 29.257-66.641 66.641s29.257 68.267 66.641 68.267zM544.508 395.987h-74.768l-27.632 307.2h130.032l-27.632-307.2z" />
<glyph unicode="&#xe91a;" glyph-name="facebook" d="M587.77 628.277v107.121c0 39.191 26.127 49.641 44.416 49.641s114.959 0 114.959 0v175.051h-156.763c-175.051 0-214.242-130.635-214.242-214.242v-117.572h-101.896v-180.277h101.896c0-232.531 0-512.091 0-512.091h211.629c0 0 0 282.173 0 512.091h143.699l18.289 180.277h-161.988z" />
<glyph unicode="&#xe91b;" glyph-name="favourite" d="M740.301 846.687c119.187 0 209.836-90.649 209.836-209.836 0-159.475-149.403-300.485-416.315-535.502l-25.18-25.18-20.144 21.823-3.357 3.357c-265.233 235.016-416.315 374.348-416.315 533.823 0 119.187 90.649 209.836 209.836 209.836 65.469 0 132.616-31.895 176.262-82.256l53.718-63.79 53.718 63.79c43.646 52.039 112.472 83.934 177.941 83.934zM740.301 917.191c-87.292 0-174.584-40.289-229.98-107.436-55.397 67.148-142.689 107.436-229.98 107.436-157.797 0-280.341-122.544-280.341-280.341 0-194.728 172.905-352.525 439.816-587.541l72.184-70.505 72.184 70.505c265.233 235.016 439.816 392.813 439.816 587.541-3.357 157.797-125.902 280.341-283.698 280.341v0z" />
<glyph unicode="&#xe91c;" glyph-name="filter" d="M430.498 826.251h593.502v-87.771h-593.502v87.771zM0 826.251h167.184v-87.771h-167.184v87.771zM0 485.614h593.502v-87.771h-593.502v87.771zM430.498 157.516h593.502v-87.771h-593.502v87.771zM0 157.516h173.453v-87.771h-173.453v87.771zM298.841 606.822c-96.131 0-175.543 79.412-175.543 175.543s79.412 175.543 175.543 175.543 175.543-79.412 175.543-175.543-77.322-175.543-175.543-175.543zM298.841 870.136c-48.065 0-87.771-39.706-87.771-87.771s39.706-87.771 87.771-87.771c48.065 0 87.771 39.706 87.771 87.771 0 50.155-37.616 87.771-87.771 87.771zM298.841-61.913c-96.131 0-175.543 79.412-175.543 175.543s79.412 175.543 175.543 175.543 175.543-79.412 175.543-175.543c0-98.22-77.322-175.543-175.543-175.543zM298.841 201.402c-48.065 0-87.771-39.706-87.771-87.771s39.706-87.771 87.771-87.771c48.065 0 87.771 39.706 87.771 87.771s-37.616 87.771-87.771 87.771zM708.441 266.185c-96.131 0-175.543 79.412-175.543 175.543s79.412 175.543 175.543 175.543 175.543-79.412 175.543-175.543c0-98.22-77.322-175.543-175.543-175.543zM708.441 529.499c-48.065 0-87.771-39.706-87.771-87.771s39.706-87.771 87.771-87.771 87.771 39.706 87.771 87.771c0 48.065-37.616 87.771-87.771 87.771z" />
<glyph unicode="&#xe91d;" glyph-name="funds" d="M832.001 4.466h-724.837c-58.047 0-107.163 47.628-107.163 107.163v532.837c0 58.047 47.628 107.163 107.163 107.163h724.837c58.047 0 107.163-47.628 107.163-107.163v-125.023h-62.512v125.023c0 23.814-19.349 44.651-44.651 44.651h-724.837c-23.814 0-44.651-19.349-44.651-44.651v-534.326c0-23.814 19.349-44.651 44.651-44.651h724.837c23.814 0 44.651 19.349 44.651 44.651v141.395h62.512v-141.395c-1.488-58.047-49.116-105.674-107.163-105.674zM765.024 704.001l-17.86 75.907c-5.953 19.349-29.767 31.256-50.605 25.302l-299.163-95.256-11.907 40.186 299.163 95.256c43.163 13.395 89.302-10.419 102.698-53.581l17.86-77.395-40.186-10.419zM233.676 711.443l-20.837 35.721 236.651 130.977c19.349 10.419 41.674 13.395 62.512 7.442s38.698-19.349 49.116-38.698l22.326-38.698-35.721-20.837-22.326 40.186c-4.465 8.93-13.395 16.372-23.814 19.349s-20.837 1.488-31.256-2.977l-236.651-132.465zM940.652 220.28h-339.349c-46.14 0-83.349 37.209-83.349 83.349v142.884c0 46.14 37.209 83.349 83.349 83.349h337.86c46.14 0 83.349-37.209 83.349-83.349v-142.884c1.488-46.14-35.721-83.349-81.86-83.349zM601.303 488.187c-22.326 0-41.674-19.349-41.674-41.674v-142.884c0-22.326 19.349-41.674 41.674-41.674h337.86c22.326 0 41.674 19.349 41.674 41.674v142.884c0 22.326-19.349 41.674-41.674 41.674h-337.86zM702.513 376.559c0-25.483-20.657-46.14-46.14-46.14s-46.14 20.657-46.14 46.14c0 25.483 20.657 46.14 46.14 46.14s46.14-20.657 46.14-46.14z" />
<glyph unicode="&#xe91e;" glyph-name="games1" d="M0 234.607h1024v-66.511h-1024v66.511zM0 727.901h1024v-66.511h-1024v66.511zM231.404 425.828h-37.413c-4.157 0-6.928-1.386-6.928-5.543v-34.641c0-4.157 2.771-5.543 6.928-5.543h38.798c4.157 0 8.314 2.771 12.471 6.928s5.543 9.7 5.543 13.857c0 5.543-2.771 11.085-6.928 15.242-2.771 6.928-6.928 9.7-12.471 9.7zM476.665 431.37h26.327l-13.857 36.027zM193.991 466.012h38.798c4.157 0 6.928 2.771 11.085 6.928 2.771 4.157 4.157 8.314 4.157 12.471s-1.386 8.314-5.543 12.471c-2.771 4.157-6.928 5.543-11.085 5.543h-37.413c-4.157 0-6.928-1.386-6.928-5.543v-26.327c1.386-2.771 2.771-5.543 6.928-5.543zM821.694 506.196h-45.727c-5.543 0-6.928-2.771-6.928-6.928v-27.713c0-4.157 2.771-6.928 6.928-6.928h47.112c9.7 0 15.242 6.928 15.242 20.785 0 5.543-1.386 9.7-4.157 13.857-4.157 4.157-8.314 6.928-12.471 6.928zM0 610.12v-327.015h1024v327.015h-1024zM317.315 351.002c-18.014-6.928-37.413-11.085-58.198-11.085h-185.678v33.256c6.928 0 11.085 1.386 15.242 5.543s6.928 8.314 6.928 15.242v90.068c0 5.543-2.771 11.085-6.928 15.242s-9.7 5.543-16.628 5.543v37.413h192.606c16.628 0 33.256-4.157 48.498-11.085 19.399-9.7 27.713-22.17 27.713-37.413v-2.771c0-6.928-1.386-12.471-5.543-19.399s-8.314-11.085-13.857-13.857c-1.386 0-8.314-2.771-19.399-6.928-2.771-2.771-4.157-2.771-5.543-2.771 0 0 2.771-1.386 5.543-4.157 0 0 5.543-2.771 18.014-8.314 0 0 2.771-1.386 6.928-2.771 6.928-4.157 12.471-9.7 16.628-18.014 4.157-6.928 6.928-15.242 6.928-23.556 1.386-16.628-9.7-30.484-33.256-40.184zM642.944 338.531h-139.951v36.027l12.471 1.386c5.543 1.386 9.7 4.157 9.7 9.7 0 8.314-4.157 12.471-12.471 12.471h-40.184c-8.314 0-11.085-4.157-11.085-13.857 0-5.543 2.771-8.314 9.7-9.7l12.471-1.386v-36.027h-119.166v37.413c2.771 0 4.157 0 6.928 0 11.085 0 19.399 6.928 24.942 19.399l63.74 146.88h88.682l63.74-146.88c5.543-13.857 16.628-20.785 31.87-20.785v-34.641zM961.645 375.944c0-16.628-9.7-27.713-27.713-34.641-9.7-4.157-19.399-5.543-31.87-5.543-47.112 0-69.283 16.628-69.283 49.884 0 20.785-6.928 33.256-22.17 37.413-4.157 1.386-6.928 1.386-8.314 1.386h-24.942c-5.543 0-8.314-1.386-8.314-4.157v-26.327c0-6.928 4.157-12.471 11.085-16.628 1.386 0 5.543-1.386 13.857-1.386v-37.413h-138.566v34.641c6.928 0 11.085 1.386 15.242 5.543s6.928 8.314 6.928 15.242v90.068c0 5.543-2.771 11.085-6.928 15.242s-9.7 5.543-16.628 5.543v37.413h212.005c16.628 0 33.256-4.157 47.112-12.471 16.628-9.7 24.942-22.17 24.942-38.798 0-15.242-6.928-27.713-22.17-33.256-6.928-2.771-13.857-5.543-23.556-8.314-4.157-1.386-5.543-2.771-5.543-4.157s1.386-1.386 2.771-2.771c0 0 1.386 0 1.386 0 5.543-1.386 9.7-5.543 16.628-9.7 5.543-4.157 9.7-9.7 12.471-12.471 4.157-6.928 5.543-18.014 5.543-31.87 1.386-4.157 2.771-6.928 5.543-6.928s5.543 1.386 6.928 4.157c0 1.386 0 4.157 1.386 8.314h22.17v-18.014z" />
<glyph unicode="&#xe91f;" glyph-name="games2" d="M458.318 536.891c-9.236 0-16.162-3.463-23.089-10.39s-11.545-16.162-13.853-25.398l-1.154-8.081h-64.649v107.364h55.414v-16.162c0-2.309 1.154-3.463 4.618-3.463s15.008 3.463 33.479 10.39c17.317 6.927 31.17 9.236 41.56 9.236 12.699 0 28.861-3.463 50.796-11.545 20.78-6.927 35.788-11.545 42.715-11.545 15.008 0 24.244 6.927 28.861 21.935l54.259-1.154v-17.317c0-11.545-3.463-24.244-10.39-39.251s-15.008-26.552-23.089-34.634l-48.487-42.715c-24.244-21.935-36.942-41.56-36.942-57.723 0-6.927 2.309-18.471 8.081-31.17 5.772-13.853 8.081-20.78 8.081-23.089 0-19.626-8.081-33.479-24.244-43.869-13.853-8.081-30.016-12.699-50.796-12.699-19.626 0-35.788 4.618-49.641 12.699-16.162 10.39-24.244 24.244-24.244 42.715 0 19.626 2.309 35.788 8.081 49.641 11.545 30.016 28.861 53.105 50.796 66.958 1.154 1.154 17.317 9.236 47.333 24.244 11.545 5.772 17.317 10.39 18.471 12.699 3.463 2.309 4.618 4.618 4.618 5.772 0 0 0 1.154-1.154 1.154 0 0-2.309 1.154-4.618 3.463-1.154 0-6.927 0-17.317 1.154-20.78 1.154-38.097 5.772-50.796 15.008-2.309 4.618-6.927 5.772-12.699 5.772zM102.746 536.891c-9.236 0-16.162-3.463-23.089-10.39s-11.545-16.162-13.853-25.398l-1.154-8.081h-64.649v107.364h56.568v-16.162c0-2.309 1.154-3.463 4.618-3.463s15.008 3.463 33.479 10.39c17.317 6.927 31.17 9.236 41.56 9.236 12.699 0 28.861-3.463 50.796-11.545 20.78-6.927 35.788-11.545 42.715-11.545 15.008 0 24.244 6.927 28.861 21.935l54.259-1.154v-17.317c0-11.545-3.463-24.244-10.39-39.251s-15.008-26.552-23.089-34.634l-48.487-42.715c-24.244-21.935-36.942-41.56-36.942-57.723 0-6.927 2.309-18.471 8.081-31.17 5.772-13.853 8.081-20.78 8.081-23.089 0-19.626-8.081-33.479-24.244-43.869-13.853-8.081-30.016-12.699-50.796-12.699-19.626 0-35.788 4.618-49.641 12.699-16.162 10.39-24.244 24.244-24.244 42.715 0 19.626 2.309 35.788 8.081 49.641 11.545 30.016 28.861 53.105 50.796 66.958 1.154 1.154 17.317 9.236 47.333 24.244 11.545 5.772 17.317 10.39 18.471 12.699 3.463 2.309 4.618 4.618 4.618 5.772 0 0 0 1.154-1.154 1.154 0 0-2.309 1.154-4.618 3.463-1.154 0-6.927 0-17.317 1.154-20.78 1.154-38.097 5.772-50.796 15.008-3.463 4.618-8.081 5.772-13.853 5.772zM813.889 536.891c-9.236 0-16.162-3.463-23.089-10.39s-11.545-16.162-13.853-25.398l-1.154-8.081h-64.649v107.364h56.568v-16.162c0-2.309 1.154-3.463 4.618-3.463s15.008 3.463 33.479 10.39c17.317 6.927 31.17 9.236 41.56 9.236 12.699 0 28.861-3.463 50.796-11.545 20.78-6.927 35.788-11.545 42.715-11.545 15.008 0 24.244 6.927 28.861 21.935l54.259-1.154v-17.317c0-11.545-3.463-24.244-10.39-39.251s-15.008-26.552-23.089-34.634l-48.487-42.715c-24.244-21.935-36.942-41.56-36.942-57.723 0-6.927 2.309-18.471 8.081-31.17 5.772-13.853 8.081-20.78 8.081-23.089 0-19.626-8.081-33.479-24.244-43.869-13.853-8.081-30.016-12.699-50.796-12.699-19.626 0-35.788 4.618-49.641 12.699-16.162 10.39-24.244 24.244-24.244 42.715 0 19.626 2.309 35.788 8.081 49.641 11.545 30.016 28.861 53.105 50.796 66.958 1.154 1.154 17.317 9.236 47.333 24.244 11.545 5.772 17.317 10.39 18.471 12.699 3.463 2.309 4.618 4.618 4.618 5.772 0 0 0 1.154-1.154 1.154 0 0-2.309 1.154-4.618 3.463-1.154 0-6.927 0-17.317 1.154-20.78 1.154-38.097 5.772-50.796 15.008-3.463 4.618-8.081 5.772-13.853 5.772z" />
<glyph unicode="&#xe920;" glyph-name="games3" d="M50.154 204.885l274.46-112.849c34.83-13.932 73.839 2.786 87.771 36.223l40.403 97.524-44.582 19.505-40.403-97.524c-4.18-9.752-15.325-13.932-25.078-9.752l-274.46 112.849c-9.752 4.18-13.932 15.325-9.752 25.078l112.849 274.46c4.18 9.752 15.325 13.932 25.078 9.752l174.15-72.446 18.112 44.582-174.15 72.446c-34.83 13.932-73.839-2.786-87.771-36.223l-112.849-274.46c-13.932-34.83 1.393-75.233 36.223-89.165v0zM285.604 388.787c-22.291 9.752-48.762-1.393-57.121-23.684-9.752-22.291 1.393-48.762 23.684-57.121 22.291-9.752 48.762 1.393 57.121 23.684 9.752 22.291 0 47.369-23.684 57.121v0zM103.095 312.161c-9.752-22.291 1.393-48.762 23.684-57.121 22.291-9.752 48.762 1.393 57.121 23.684 9.752 22.291-1.393 48.762-23.684 57.121-22.291 9.752-48.762-1.393-57.121-23.684v0zM711.922 521.14c2.786 11.146 4.18 22.291 1.393 34.83-6.966 39.010-45.976 65.48-84.985 58.514-40.403-6.966-65.48-45.976-58.514-84.985 2.786-12.539 6.966-22.291 13.932-32.044-39.010-8.359-65.48-45.976-57.121-84.985 6.966-40.403 45.976-65.48 84.985-58.514 19.505 4.18 34.83 13.932 45.976 29.257 0-27.864-4.18-61.301-27.864-65.48l105.883 19.505c-23.684-4.18-40.403 25.078-50.155 51.548 15.325-9.752 33.437-13.932 52.941-11.146 39.010 6.966 65.48 45.976 58.514 84.985s-44.582 65.48-84.985 58.514v0zM462.54 713.402c1.393 2.786 1.393 6.966 0 11.146-2.786 12.539-13.932 20.898-26.471 18.112s-20.898-13.932-18.112-26.471c1.393-4.18 2.786-6.966 4.18-9.752-12.539-2.786-19.505-13.932-18.112-26.471 2.786-12.539 13.932-20.898 26.471-18.112 5.573 1.393 11.146 4.18 13.932 9.752 0-8.359-1.393-19.505-8.359-20.898l33.437 5.573c-6.966-1.393-12.539 8.359-15.325 15.325 4.18-2.786 11.146-4.18 16.718-2.786 12.539 2.786 20.898 13.932 18.112 26.471s-15.325 20.898-26.471 18.112v0zM865.174 178.414c-1.393-2.786-1.393-6.966 0-11.146 2.786-12.539 13.932-20.898 26.471-18.112s20.898 13.932 18.112 26.471c0 4.18-2.786 6.966-4.18 9.752 12.539 2.786 19.505 13.932 18.112 26.471-2.786 12.539-13.932 20.898-26.471 18.112-5.573-1.393-11.146-4.18-13.932-9.752 0 8.359 1.393 19.505 8.359 20.898l-33.437-5.573c6.966 1.393 12.539-8.359 15.325-15.325-4.18 2.786-11.146 4.18-16.718 2.786-12.539-2.786-20.898-13.932-18.112-26.471s13.932-20.898 26.471-18.112v0zM1018.426 104.575c4.18 5.573 5.573 12.539 4.18 19.505l-143.499 755.113c-1.393 6.966-5.573 12.539-11.146 16.718s-12.539 5.573-19.505 4.18l-526.629-98.917c-13.932-2.786-23.684-16.718-20.898-30.65l142.106-755.113c1.393-6.966 5.573-12.539 11.146-16.718 2.786-2.786 6.966-4.18 11.146-4.18 2.786 0 5.573 0 8.359 0l526.629 98.917c6.966 1.393 13.932 5.573 18.112 11.146v0zM490.404 51.633l-132.354 702.171 473.687 89.165 132.354-702.171-473.687-89.165z" />
<glyph unicode="&#xe921;" glyph-name="google" d="M545.966 369.62c-28.74 20.902-83.607 70.543-83.607 99.283 0 33.965 10.451 49.641 60.092 91.445 52.254 41.803 88.832 99.283 88.832 164.601 0 80.994-36.578 156.763-101.896 182.89h99.283l70.543 52.254h-316.138c-141.086 0-276.947-107.121-276.947-232.531 0-128.023 96.67-229.918 240.369-229.918 10.451 0 20.902 0 28.74 0-10.451-18.289-15.676-39.191-15.676-60.092 0-36.578 18.289-65.318 44.416-88.832-18.289 0-36.578 0-54.867 0-175.051 0-310.912-112.346-310.912-227.306s148.924-185.502 323.976-185.502c201.179 0 310.912 114.959 310.912 227.306 2.613 91.445-23.514 146.312-107.121 206.404zM376.14 528.996c-80.994 2.613-159.375 91.445-172.439 198.566s41.803 190.728 122.797 188.115c80.994-2.613 159.375-88.832 172.439-195.953s-41.803-193.34-122.797-190.728zM342.175-14.448c-122.797 0-209.017 75.769-209.017 169.826 0 91.445 109.734 167.213 229.918 164.601 28.74 0 54.867-5.225 78.381-13.064 65.318-47.029 112.346-73.156 128.023-125.41 2.613-10.451 2.613-20.902 2.613-33.965 2.613-88.832-57.48-161.988-229.918-161.988zM883.005 518.545v125.41h-99.283v-125.41h-122.797v-99.283h122.797v-122.797h99.283v122.797h122.797v99.283z" />
<glyph unicode="&#xe922;" glyph-name="grid" d="M0 911.998h256v-224h-256v224zM384 911.998h256v-224h-256v224zM768 911.998h256v-224h-256v224zM0 559.998h256v-224h-256v224zM384 559.998h256v-224h-256v224zM768 559.998h256v-224h-256v224zM0 207.998h256v-224h-256v224zM384 207.998h256v-224h-256v224zM768 207.998h256v-224h-256v224z" />
<glyph unicode="&#xe923;" glyph-name="help-support" d="M320.237 654.953c0 0 25.315 26.581 79.743 26.581 55.693 0 96.198-27.847 96.198-74.68 0-62.022-60.756-65.82-65.82-96.198l-1.266-8.86h-51.896v12.658c0 44.302 44.302 45.567 44.302 79.743 0 15.189-11.392 24.049-30.378 24.049-20.252 0-36.707-15.189-36.707-15.189l-34.176 51.896zM402.512 477.746c20.252 0 35.441-15.189 35.441-35.441s-15.189-35.441-35.441-35.441c-20.252 0-35.441 16.455-35.441 35.441 0 20.252 15.189 35.441 35.441 35.441zM410.106 790.389c67.085 0 129.108-12.658 186.067-35.441 54.428-22.784 97.464-54.428 129.108-92.401 29.112-36.707 43.036-74.68 43.036-116.45s-13.923-79.743-43.036-116.45c-30.378-39.239-74.68-69.617-129.108-92.401-55.693-24.049-118.981-35.441-186.067-35.441-30.378 0-62.022 2.532-93.666 8.86l-21.518 3.797-17.721-12.658c-29.112-20.252-59.491-36.707-93.666-50.63 2.532 3.797 5.063 7.595 6.329 11.392 5.063 8.86 8.86 18.986 13.923 29.112l17.721 43.036-40.504 24.049c-40.504 24.049-73.414 53.162-96.198 87.337-21.518 31.644-32.91 64.554-32.91 101.261 0 41.77 13.923 79.743 43.036 116.45 30.378 39.239 73.414 69.617 129.108 92.401 56.959 21.518 118.981 34.176 186.067 34.176zM410.106 843.551c-74.68 0-143.031-13.923-206.319-40.504s-112.653-63.288-149.36-108.855c-36.707-45.567-54.428-96.198-54.428-149.36 0-46.833 13.923-89.869 41.77-130.373s65.82-74.68 113.918-103.792c-3.797-8.86-7.595-17.721-11.392-25.315s-8.86-15.189-15.189-22.784c-5.063-7.595-10.126-12.658-12.658-16.455s-7.595-10.126-15.189-17.721c-7.595-7.595-11.392-12.658-13.923-15.189 0 0 0 0 0 0s-1.266-1.266-2.532-2.532c-1.266-2.532-2.532-2.532-2.532-2.532s0 0 0 0 0 0 0 0-1.266-1.266-2.532-2.532-2.532-3.797-2.532-3.797l-1.266-2.532c0-1.266-1.266-2.532-1.266-3.797s0-2.532 0-3.797c0-1.266 0-2.532 0-3.797 1.266-5.063 2.532-8.86 6.329-12.658 3.797-2.532 7.595-5.063 11.392-5.063h1.266c18.986 2.532 36.707 6.329 50.63 8.86 59.491 15.189 113.918 40.504 162.017 74.68 35.441-6.329 69.617-8.86 102.527-8.86 0 0 0 0 0 0 74.68 0 143.031 13.923 206.319 40.504s112.653 63.288 149.36 108.855c36.707 45.567 54.428 96.198 54.428 149.36 0 54.428-17.721 103.792-54.428 149.36s-86.072 82.274-149.36 108.855c-62.022 27.847-130.373 41.77-205.053 41.77v0zM984.762 279.022c25.315 37.973 39.239 79.743 39.239 122.779 0 44.302-13.923 87.337-40.504 126.576-27.847 39.239-64.554 72.148-111.387 97.464 8.86-27.847 12.658-55.693 12.658-83.54 0-49.365-12.658-94.932-36.707-139.234s-59.491-82.274-105.058-116.45c-41.77-30.378-91.135-54.428-144.297-70.883-54.428-16.455-110.121-24.049-169.612-24.049-11.392 0-26.581 1.266-48.099 2.532 73.414-48.099 159.486-72.148 258.215-72.148 31.644 0 63.288 2.532 96.198 8.86 45.567-31.644 96.198-55.693 151.891-69.617 12.658-3.797 29.112-6.329 46.833-8.86 3.797 0 8.86 1.266 12.658 3.797s6.329 6.329 7.595 12.658c0 2.532 0 3.797 0 3.797s0 1.266 0 3.797c-1.266 2.532-1.266 3.797-1.266 3.797h-2.532c0 1.266-1.266 1.266-2.532 2.532s-1.266 2.532-2.532 2.532c0 0-1.266 1.266-2.532 2.532s-1.266 2.532-2.532 2.532c-1.266 2.532-6.329 6.329-12.658 13.923-6.329 6.329-11.392 12.658-13.923 16.455s-7.595 8.86-12.658 16.455c-5.063 6.329-10.126 13.923-13.923 21.518s-7.595 15.189-11.392 24.049c48.099 25.315 83.54 58.225 108.855 96.198v0z" />
<glyph unicode="&#xe924;" glyph-name="home" d="M867.251 0.456h-711.966v367.702h-155.285l499.548 527.382 524.452-527.382h-156.75v-367.702zM216.813 61.984h588.91v367.702h70.318l-375.027 377.957-357.448-377.957h73.247v-367.702zM423.371 330.070h199.233v-298.85h-199.233v298.85z" />
<glyph unicode="&#xe925;" glyph-name="hot-games" d="M387.806-58.988c10.208-5.104 20.416 6.805 13.61 15.312-32.325 51.039-64.649 137.805-13.61 248.39 83.364 185.442 132.701 282.416 132.701 282.416s27.221-112.286 100.377-212.662c69.753-95.273 108.883-216.065 45.935-316.442-5.104-10.208 5.104-20.416 13.61-15.312 76.558 39.13 161.623 117.39 171.831 273.909 3.403 47.636-1.701 113.987-28.922 199.052-34.026 107.182-76.558 156.52-102.078 178.636-6.805 6.805-18.714 0-18.714-8.506 6.805-115.688-35.727-144.61-61.247-78.26-10.208 25.519-15.312 71.455-15.312 127.597 0 91.87-27.221 187.143-86.766 265.403-15.312 20.416-34.026 39.13-54.442 54.442-6.805 5.104-18.714 0-17.013-10.208 5.104-62.948 0-241.584-156.52-457.65-142.909-199.052-86.766-352.169-68.052-393 40.831-79.961 93.571-127.597 144.61-153.117v0z" />
<glyph unicode="&#xe926;" glyph-name="incomplete" d="M512 914.492c256.813 0 466.489-209.676 466.489-466.489s-209.676-466.489-466.489-466.489-466.489 209.676-466.489 466.489 208.051 466.489 466.489 466.489zM512 960.003c-282.819 0-512-229.181-512-512s229.181-512 512-512 512 229.181 512 512c0 282.819-229.181 512-512 512v0zM513.625 747.076c165.79 0 299.073-134.908 299.073-299.073 0-165.79-134.908-299.073-299.073-299.073s-299.073 134.908-299.073 299.073c-1.625 165.79 133.283 299.073 299.073 299.073zM513.625 769.831c-178.794 0-321.829-144.66-321.829-321.829s144.66-321.829 321.829-321.829c178.794 0 321.829 144.66 321.829 321.829s-144.66 321.829-321.829 321.829v0zM412.851 920.993h196.673v-108.902h-196.673v108.902zM412.851 79.038h196.673v-108.902h-196.673v108.902zM873.801 769.772l98.337-170.319-94.31-54.451-98.337 170.319 94.31 54.451zM145.146 347.931l98.337-170.319-94.31-54.451-98.337 170.319 94.31 54.451zM50.428 599.069l98.337 170.319 94.31-54.451-98.337-170.319-94.31 54.451zM779.083 177.226l98.337 170.319 94.31-54.451-98.337-170.319-94.31 54.451z" />
<glyph unicode="&#xe927;" glyph-name="info" d="M512 891.733c245.435 0 443.733-198.298 443.733-443.733s-199.924-443.733-443.733-443.733-443.733 198.298-443.733 443.733 198.298 443.733 443.733 443.733zM512 960c-282.819 0-512-229.181-512-512s229.181-512 512-512c282.819 0 512 229.181 512 512s-229.181 512-512 512v0zM568.889 743.822c39.010 0 58.514-26.006 58.514-56.889 0-37.384-34.133-71.517-76.394-71.517-35.759 0-58.514 21.13-56.889 56.889 0 29.257 24.381 71.517 74.768 71.517v0zM450.235 168.431c-30.883 0-52.013 19.505-30.883 100.775l34.133 146.286c6.502 22.756 6.502 32.508 0 32.508-9.752 0-48.762-16.254-71.517-32.508l-14.629 26.006c74.768 63.39 159.289 99.149 195.048 99.149 30.883 0 35.759-37.384 19.505-92.648l-39.010-152.787c-6.502-27.632-3.251-37.384 3.251-37.384 9.752 0 39.010 11.378 68.267 34.133l17.879-22.756c-73.143-73.143-151.162-100.775-182.044-100.775v0z" />
<glyph unicode="&#xe928;" glyph-name="ios" d="M740.017 960.092h-456.034c-37.877 0-69.693-31.816-69.693-69.693v-884.796c0-37.877 31.816-69.693 69.693-69.693h456.034c37.877 0 69.693 31.816 69.693 69.693v884.796c-1.515 37.877-31.816 69.693-69.693 69.693v0zM438.52 910.095h145.446c4.545 0 9.090-3.030 9.090-9.090 0-4.545-3.030-7.575-9.090-7.575h-145.446c-4.545 0-9.090 3.030-9.090 7.575 1.515 4.545 4.545 9.090 9.090 9.090v0zM511.243-27.729c-19.696 0-34.846 15.151-34.846 34.846s15.151 34.846 34.846 34.846c19.696 0 34.846-15.151 34.846-34.846s-15.151-34.846-34.846-34.846v0zM761.228 64.69h-498.456v784.802h498.456v-784.802zM627.903 454.061c0 53.027 43.937 78.783 45.452 80.298-24.241 36.361-63.633 40.907-77.268 42.422-33.331 3.030-65.148-19.696-81.813-19.696s-42.422 19.696-69.693 18.181c-36.361 0-69.693-21.211-87.874-53.027-37.877-65.148-9.090-160.597 27.271-213.624 18.181-25.756 39.392-54.542 66.663-53.027s36.361 16.666 69.693 16.666c31.816 0 40.907-16.666 69.693-16.666s46.967 25.756 65.148 51.512c21.211 30.301 28.786 59.087 28.786 60.602s-56.057 22.726-56.057 86.359zM574.875 611.627c15.151 18.181 24.241 42.422 22.726 68.178-21.211-1.515-46.967-13.636-62.118-31.816-13.636-16.666-25.756-40.907-22.726-65.148 22.726-3.030 46.967 10.605 62.118 28.786z" />
<glyph unicode="&#xe929;" glyph-name="leaderboard" d="M256.358 483.089c-58.719 2.864-107.413 21.483-147.513 55.855-75.905 67.312-98.82 179.021-104.548 239.172l-4.297 32.94h181.885v-60.151h-114.573c8.593-50.126 30.076-123.166 80.201-167.564 28.643-25.779 65.88-38.669 110.277-40.101l-1.432-60.151zM767.642 483.089l-1.432 60.151c44.397 1.432 81.634 15.754 110.277 40.101 50.126 44.397 71.608 117.438 80.201 167.564h-114.573v60.151h181.885l-4.297-32.94c-7.161-60.151-28.643-171.86-104.548-239.172-38.669-34.372-88.794-54.422-147.513-55.855zM820.633-41.085h-617.265v156.106h52.99v58.719h160.403v128.895c-51.558 22.915-97.387 63.015-138.92 120.302l-1.432 1.432-44.397 73.041c-7.161 12.89-14.322 27.211-20.050 41.533-30.076 64.448-48.694 144.649-57.287 237.74l-4.297 73.041c-1.432 35.804 0 57.287 0 58.719l1.432 28.643h723.245l1.432-28.643c0-1.432 1.432-22.915 0-57.287l-4.297-73.041c-5.729-64.448-20.050-157.539-57.287-239.172-7.161-14.322-12.89-28.643-20.050-41.533l-1.432-1.432-45.829-73.041c-41.533-55.855-87.362-95.955-138.92-120.302v-128.895h160.403v-58.719h52.99v-156.106zM263.519 19.067h496.962v35.804h-52.99v58.719h-158.971v232.011l20.050 7.161c47.262 17.186 91.659 52.99 130.327 105.98l42.965 68.744c5.729 11.457 12.89 24.347 18.618 37.236 34.372 74.473 47.262 160.403 52.99 219.122l4.297 71.608c0 8.593 0 17.186 0 22.915h-607.239c0-7.161 0-15.754 0-24.347l4.297-71.608c8.593-84.498 25.779-158.971 52.99-217.69 5.729-12.89 11.457-25.779 18.618-37.236l42.965-68.744c38.669-52.99 83.066-88.794 130.327-105.98l20.050-7.161v-230.579h-163.267v-58.719h-52.99v-37.236z" />
<glyph unicode="&#xe92a;" glyph-name="leaderboard2" d="M394.308 728.363h629.693v-83.959h-629.693v83.959zM394.308 480.984h629.693v-83.959h-629.693v83.959zM394.308 233.605h629.693v-83.959h-629.693v83.959zM124.44 632.41l-76.463-40.48 13.493 85.458-61.47 61.47 85.458 11.994 38.981 77.962 38.981-77.962 86.958-11.994-62.969-61.47 14.993-85.458zM124.44 380.533l-76.463-40.48 13.493 85.458-61.47 61.47 85.458 11.994 38.981 77.962 38.981-77.962 86.958-11.994-62.969-61.47 14.993-85.458zM124.44 107.666l-76.463-40.48 13.493 85.458-61.47 61.47 85.458 11.994 38.981 77.962 38.981-77.962 86.958-11.994-62.969-61.47 14.993-85.458z" />
<glyph unicode="&#xe92b;" glyph-name="list1" d="M262.796 786.896h761.204v-101.494h-761.204v101.494zM262.796 496.913h761.204v-101.494h-761.204v101.494zM262.796 206.931h761.204v-101.494h-761.204v101.494zM0 828.581h152.241v-152.241h-152.241v152.241zM0 524.099h152.241v-152.241h-152.241v152.241zM0 219.618h152.241v-152.241h-152.241v152.241z" />
<glyph unicode="&#xe92c;" glyph-name="live" d="M964.514 641.327v-386.656h-905.029v386.656h905.029zM1024 700.813h-1024v-505.627h1024v505.627zM198.285 349.565v189.787h31.159v-162.877h93.477v-28.326h-124.636zM417.814 349.565h-31.159v189.787h31.159v-189.787zM474.467 539.352h33.992l60.902-154.379 60.902 154.379h32.575l-79.314-189.787h-31.159l-77.898 189.787zM837.045 431.712h-87.812v-55.237h103.391v-28.326h-135.967v191.203h135.967v-28.326h-103.391v-52.404h89.228v-26.91z" />
<glyph unicode="&#xe92d;" glyph-name="maximize" d="M349.867-62.934h-349.867v349.867h89.6v-260.267h260.267zM378.155 377.002l63.357-63.357-363.544-363.544-63.357 63.357 363.544 363.544zM1024-62.934h-349.867v89.6h260.267v260.267h89.6zM645.918 376.901l363.544-363.544-63.357-63.357-363.544 363.544 63.357 63.357zM1024 611.2h-89.6v258.133h-260.267v89.6h349.867zM946.304 947.96l63.357-63.357-363.544-363.544-63.357 63.357 363.544 363.544zM89.6 611.2h-89.6v347.733h349.867v-89.6h-260.267zM76.502 946.554l363.544-363.544-63.357-63.357-363.544 363.544 63.357 63.357z" />
<glyph unicode="&#xe92e;" glyph-name="minimize" d="M427.882 24.607h-86.761v252.021h-252.021v86.761h338.782zM354.052 349.383l61.35-61.35-352.026-352.026-61.35 61.35 352.026 352.026zM684.034 24.607h-86.761v338.782h338.782v-86.761h-252.021zM671.172 349.285l352.026-352.026-61.35-61.35-352.026 352.026 61.35 61.35zM936.055 532.78h-338.782v338.782h86.761v-252.021h252.021zM962.042 960.092l61.35-61.35-352.026-352.026-61.35 61.35 352.026 352.026zM427.882 532.78h-338.782v86.761h252.021v252.021h86.761zM61.959 958.731l352.026-352.026-61.35-61.35-352.026 352.026 61.35 61.35z" />
<glyph unicode="&#xe92f;" glyph-name="my-account" d="M1022.685 749.408c0 3.949-5.265 6.581-9.213 6.581-13.162 0-23.692 7.897-28.956 18.427-5.265 11.846-1.316 25.008 7.897 34.221 2.632 2.632 3.949 7.897 1.316 10.53-6.581 7.897-14.478 15.794-22.375 22.375-2.632 2.632-7.897 2.632-10.53-1.316-7.897-9.213-23.692-13.162-34.221-7.897-11.846 5.265-19.743 17.111-18.427 30.273 0 3.949-2.632 7.897-6.581 7.897-10.53 1.316-21.059 1.316-31.589 0-3.949 0-6.581-3.949-6.581-7.897 0-13.162-6.581-25.008-18.427-28.956-11.846-5.265-26.324-1.316-34.221 7.897-2.632 2.632-7.897 3.949-10.53 1.316-7.897-6.581-15.794-14.478-22.375-22.375-2.632-2.632-2.632-7.897 1.316-10.53 9.213-9.213 13.162-22.375 7.897-34.221s-17.111-18.427-30.273-18.427c-3.949 0-7.897-2.632-7.897-6.581-1.316-10.53-1.316-21.059 0-31.589 0-3.949 5.265-6.581 9.213-6.581 11.846 0 23.692-6.581 28.956-18.427s1.316-25.008-7.897-34.221c-2.632-2.632-3.949-7.897-1.316-10.53 6.581-7.897 13.162-15.794 22.375-22.375 2.632-2.632 7.897-2.632 10.53 1.316 7.897 9.213 23.692 13.162 34.221 7.897 11.846-5.265 19.743-17.111 18.427-30.273 0-3.949 2.632-7.897 6.581-7.897 5.265 0 10.53-1.316 15.794-1.316s10.53 0 15.794 1.316c3.949 0 6.581 3.949 6.581 7.897 0 13.162 6.581 25.008 18.427 28.956 11.846 5.265 26.324 1.316 34.221-7.897 2.632-2.632 7.897-3.949 10.53-1.316 7.897 6.581 15.794 14.478 22.375 22.375 2.632 2.632 2.632 7.897-1.316 10.53-9.213 9.213-13.162 22.375-7.897 34.221s15.794 18.427 27.64 18.427h1.316c3.949 0 7.897 2.632 7.897 6.581 2.632 10.53 2.632 21.059 1.316 31.589v0zM885.801 687.547c-25.008 0-46.067 21.059-46.067 46.067s21.059 46.067 46.067 46.067c25.008 0 46.067-21.059 46.067-46.067s-21.059-46.067-46.067-46.067v0zM519.899 815.218c3.949 0 6.581 0 10.53 0 1.316-1.316 1.316-2.632 2.632-3.949-3.949-2.632-21.059-23.692-11.846-31.589 18.427-15.794 38.17-31.589 56.596-48.699 15.794-14.478 22.375-32.905 22.375-53.964 0-36.853 0-73.707 0-110.56 0-7.897 0-14.478 9.213-18.427 2.632 0 3.949-5.265 3.949-6.581-1.316-18.427-3.949-38.17-5.265-56.596 0-1.316 0-1.316 0-2.632-17.111-25.008-18.427-55.28-31.589-81.604 0-1.316-1.316-2.632-1.316-2.632-22.375-26.324-15.794-57.913-15.794-88.185 0-2.632 2.632-7.897 3.949-9.213 9.213-3.949 11.846-11.846 14.478-19.743 3.949-13.162 7.897-26.324 13.162-38.17 2.632-3.949 7.897-7.897 13.162-10.53 68.442-26.324 136.884-53.964 202.694-88.185 13.162-6.581 25.008-14.478 34.221-25.008v-40.802h-784.453v39.486c10.53 10.53 22.375 17.111 35.537 25.008 22.375 11.846 44.751 25.008 67.126 35.537s44.751 19.743 68.442 28.956c21.059 9.213 43.434 17.111 64.494 26.324 3.949 1.316 7.897 5.265 9.213 9.213 5.265 11.846 9.213 23.692 13.162 36.853 2.632 9.213 5.265 18.427 17.111 21.059 2.632 0 6.581 5.265 6.581 9.213 2.632 18.427 3.949 35.537 5.265 53.964 0 3.949-1.316 9.213-3.949 11.846-15.794 17.111-25.008 38.17-27.64 61.861-1.316 11.846-7.897 22.375-11.846 34.221-3.949 15.794-7.897 31.589-11.846 47.383-1.316 5.265 0 11.846-1.316 17.111-1.316 7.897-1.316 14.478 9.213 18.427 2.632 1.316 5.265 7.897 5.265 11.846 0 25.008 0 50.015 0 75.023 0 15.794 0 31.589 1.316 46.067 2.632 28.956 19.743 64.494 40.802 82.92 31.589 26.324 69.758 23.692 109.244 32.905 21.059 5.265 40.802 7.897 61.861 10.53 1.316 1.316 3.949 1.316 5.265 1.316zM519.899 870.498c-5.265 0-10.53 0-15.794-1.316l-13.162-2.632c-17.111-2.632-35.537-5.265-52.648-9.213-9.213-2.632-18.427-3.949-28.956-5.265-30.273-5.265-68.442-10.53-102.663-39.486-32.905-27.64-57.913-76.339-60.545-121.090-1.316-15.794-1.316-31.589-1.316-46.067v-3.949c0-10.53 0-21.059 0-31.589 0-7.897 0-15.794 0-25.008-10.53-13.162-17.111-31.589-14.478-56.596 0 0 0-1.316 0-1.316 0-5.265 0-11.846 2.632-21.059 2.632-14.478 7.897-31.589 13.162-50.015 2.632-7.897 5.265-14.478 6.581-19.743 1.316-2.632 2.632-6.581 2.632-7.897 3.949-28.956 14.478-53.964 30.273-76.339 0-5.265-1.316-9.213-1.316-14.478-10.53-9.213-18.427-23.692-23.692-40.802v-1.316c-1.316-6.581-3.949-11.846-5.265-17.111-7.897-3.949-17.111-6.581-25.008-10.53-7.897-2.632-15.794-6.581-23.692-9.213l-13.162-5.265c-18.427-7.897-38.17-15.794-57.913-25.008-21.059-10.53-42.118-21.059-60.545-31.589l-9.213-5.265c-11.846-6.581-31.589-17.111-48.699-32.905l-17.111-15.794v-118.458h895.013v118.458l-15.794 15.794c-13.162 14.478-30.273 26.324-48.699 35.537-68.442 35.537-139.517 64.494-196.113 85.553-1.316 3.949-2.632 7.897-3.949 11.846l-2.632 6.581c-2.632 7.897-6.581 21.059-15.794 32.905 0 0 0 0 0 0 0 17.111-1.316 27.64 2.632 31.589 5.265 6.581 9.213 13.162 10.53 18.427 6.581 13.162 9.213 26.324 13.162 38.17 3.949 13.162 6.581 25.008 11.846 31.589 6.581 9.213 9.213 18.427 10.53 28.956l1.316 10.53c1.316 14.478 2.632 30.273 3.949 46.067v0 0c1.316 13.162-3.949 28.956-11.846 42.118 0 19.743 0 40.802 0 60.545v36.853c0 38.17-14.478 72.391-40.802 96.082-6.581 5.265-11.846 10.53-18.427 17.111l15.794 11.846-34.221 43.434-15.794 26.324h-31.589c-1.316 0-2.632 0-2.632 0-1.316 0-3.949 0-6.581 0v0z" />
<glyph unicode="&#xe930;" glyph-name="new-games" d="M964.514 641.327v-386.656h-905.029v386.656h905.029zM1024 700.813h-1024v-505.627h1024v505.627zM359.745 349.565h-24.077l-109.057 134.55v-134.55h-31.159v189.787h24.077l109.057-134.55v134.55h31.159v-189.787zM558.030 431.712h-89.228v-55.237h103.391v-28.326h-135.967v191.203h135.967v-28.326h-103.391v-52.404h89.228v-26.91zM744.985 486.948l-38.241-137.383h-24.077l-60.902 189.787h33.992l38.241-134.55 36.824 134.55h26.91l38.241-134.55 38.241 134.55h33.992l-59.485-189.787h-24.077l-39.657 137.383z" />
<glyph unicode="&#xe931;" glyph-name="notifications" d="M555.268 89.238l-10.817-12.62c-32.451-41.465-82.93-64.901-135.211-64.901-30.648 0-59.493 7.211-84.732 21.634-39.662 21.634-68.507 59.493-79.324 102.761-9.014 36.056-7.211 72.113 7.211 104.563l7.211 16.225-259.606 146.028 254.197 164.056 131.606 221.746c59.493 100.958 171.268 164.056 290.253 164.056 57.69 0 117.183-14.423 167.662-43.268 77.521-43.268 133.408-115.38 156.845-201.915 23.437-84.732 10.817-171.268-34.254-246.986l-133.408-221.746-18.028-295.662-259.606 146.028zM749.972 69.407l12.62 205.521 131.606 223.549c34.254 57.69 43.268 124.394 25.239 189.296s-59.493 120.789-120.789 153.239c-39.662 21.634-82.93 34.254-128 34.254-91.944 0-176.676-48.676-223.549-126.197l-131.606-223.549-176.676-113.577 239.775-135.211c-41.465-12.62-72.113-50.479-72.113-95.549 0-54.085 45.070-99.155 99.155-99.155s99.155 45.070 99.155 99.155c0 9.014-1.803 18.028-3.606 25.239l248.789-137.014z" />
<glyph unicode="&#xe932;" glyph-name="online1" d="M968.891 883.104v1.282h-913.782v-1.282c-29.477-2.563-51.264-25.632-55.109-53.827v-601.071c0-11.534 2.563-21.787 7.69-29.477 11.534-20.506 28.195-30.758 52.546-30.758h383.199v-101.247h-152.511v-55.109h440.871v55.109h-152.511v101.247h383.199c23.069 0 41.011 10.253 52.546 30.758 5.126 8.971 8.971 19.224 8.971 29.477v601.071c-3.845 28.195-26.914 52.546-55.109 53.827zM968.891 824.15v-595.945c0-3.845-1.282-5.126-5.126-5.126h-904.811c-3.845 0-5.126 1.282-5.126 5.126v601.071h913.782v-5.126zM506.233 719.058c47.419 0 92.275-17.942 126.879-48.701 2.563-2.563 6.408-5.126 7.69-7.69l3.845-3.845c15.379-16.661 26.914-34.603 35.885-55.109v-1.282l1.282-2.563c6.408-16.661 10.253-33.322 12.816-51.264 0-5.126 1.282-11.534 1.282-16.661v-2.563c0-11.534-1.282-21.787-2.563-33.322-1.282-3.845-1.282-7.69-2.563-11.534-3.845-14.098-8.971-28.195-15.379-41.011-32.040-64.080-97.402-102.528-167.89-102.528-103.81 0-188.396 84.586-188.396 188.396 0 42.293 14.098 82.023 39.73 115.344 6.408 8.971 14.098 16.661 21.787 23.069 33.322 33.322 78.178 51.264 125.597 51.264zM506.233 754.943c-58.954 0-111.499-23.069-151.229-58.954-8.971-8.971-17.942-17.942-25.632-28.195-29.477-38.448-47.419-85.867-47.419-137.131 0-124.315 101.247-224.28 224.28-224.28 87.149 0 162.763 49.982 199.93 121.752 7.69 15.379 14.098 32.040 17.942 49.982 1.282 3.845 2.563 8.971 2.563 12.816 2.563 12.816 3.845 25.632 3.845 39.73 0 1.282 0 1.282 0 2.563 0 6.408 0 12.816-1.282 19.224-2.563 21.787-7.69 42.293-15.379 61.517 0 1.282-1.282 2.563-1.282 3.845-10.253 24.35-24.35 46.138-42.293 65.362-1.282 1.282-2.563 2.563-3.845 3.845-3.845 3.845-6.408 6.408-10.253 10.253-38.448 35.885-92.275 57.672-149.947 57.672v0zM629.266 675.484l-3.845-3.845 1.282-5.126 5.126-1.282 2.563-7.69 8.971 3.845 1.282-10.253h-2.563l-6.408 1.282-7.69-1.282-7.69-10.253-10.253-1.282-2.563-8.971 3.845-1.282-1.282-6.408-10.253 2.563-8.971-2.563-2.563-5.126 1.282-11.534 5.126-2.563h15.379l2.563 5.126 10.253 12.816 6.408-1.282 6.408 6.408 1.282-5.126 15.379-10.253-1.282-1.282h-7.69l2.563-3.845 3.845-1.282 5.126 2.563v6.408l2.563 1.282-1.282 2.563-10.253 5.126-2.563 7.69h8.971l2.563-2.563 7.69-6.408v-7.69l7.69-8.971 2.563 11.534 5.126 2.563 1.282-8.971 5.126-6.408h5.126c0 0 0 0 0 0 0 1.282-1.282 2.563-1.282 3.845-8.971 21.787-21.787 41.011-37.166 57.672-1.282 1.282-2.563 2.563-2.563 3.845-2.563 2.563-6.408 6.408-8.971 8.971 0 0-1.282 1.282-1.282 1.282v0l-8.971-3.845zM328.090 594.743v-16.661l7.69-14.098 6.408-1.282 1.282 5.126-7.69 11.534-1.282 11.534h3.845l1.282-11.534 11.534-16.661-2.563-3.845 7.69-11.534 17.942-3.845v2.563l7.69-1.282-1.282-5.126 5.126-1.282 8.971-2.563 11.534-14.098 15.379-1.282 1.282-12.816-10.253-7.69v-11.534l-1.282-6.408 15.379-19.224 1.282-6.408c0 0 5.126-1.282 6.408-1.282s12.816-8.971 12.816-8.971v-34.603l3.845-1.282-2.563-16.661 7.69-8.971-2.563-15.379 8.971-16.661 11.534-10.253h11.534l1.282 3.845-7.69 7.69v3.845l1.282 5.126v5.126h-6.408l-2.563 3.845 5.126 5.126 1.282 3.845-5.126 1.282v3.845l7.69 1.282 11.534 6.408 3.845 7.69 12.816 16.661-2.563 12.816 3.845 6.408h11.534l7.69 6.408 2.563 24.35 8.971 11.534 2.563 2.563-7.69 2.563-5.126 8.971h-17.942l-14.098 5.126-1.282 10.253-5.126 8.971h-12.816l-7.69 11.534-6.408 3.845v-3.845l-11.534-1.282-3.845 6.408-12.816 2.563-10.253-11.534-16.661 2.563-1.282 17.942-11.534 2.563 5.126 8.971-1.282 5.126-15.379-10.253-10.253 1.282-3.845 7.69 2.563 7.69 5.126 10.253 12.816 6.408h23.069v-7.69l8.971-3.845-1.282 12.816 6.408 6.408 12.816 7.69 1.282 6.408 12.816 12.816 12.816 7.69-1.282 1.282 8.971 8.971 3.845-3.845 3.845 3.845h-2.563l-3.845 1.282v3.845l2.563 1.282h3.845l2.563-1.282 1.282-3.845h2.563l6.408 1.282 1.282 2.563 3.845-1.282v-3.845l-3.845-2.563v-3.845l11.534-3.845h2.563v5.126l-8.971 3.845v2.563l7.69 2.563v7.69l-7.69 5.126v11.534l-11.534-2.563h-3.845l1.282 8.971-14.098 3.845-6.408-5.126v-14.098l-10.253-3.845-5.126-7.69-5.126-1.282v11.534l-10.253 1.282-3.845 3.845-2.563 7.69 17.942 10.253 8.971 2.563 1.282-6.408h5.126v2.563l5.126 1.282v1.282l-2.563 1.282v2.563h6.408l5.126 5.126 12.816 1.282 6.408-5.126-15.379-7.69 19.224-5.126 2.563 6.408h8.971l2.563 5.126-6.408 1.282v7.69l-17.942 11.534-12.816-1.282-7.69-3.845v-8.971l-7.69 1.282-1.282 5.126 7.69 6.408-14.098 1.282-3.845-1.282-1.282-5.126 5.126-1.282-1.282-5.126h-8.971l-1.282-3.845h-12.816c0 0 0 7.69-1.282 7.69 0 0 10.253 0 10.253 0l7.69 7.69-3.845 2.563-5.126-5.126h-8.971l-5.126 7.69h-11.534l-11.534-8.971h11.534l1.282-3.845-2.563-2.563h11.534l1.282-3.845h-14.098l-1.282 3.845h-7.69l-5.126 2.563h-2.563c-7.69-5.126-15.379-11.534-23.069-17.942-7.69-7.69-15.379-15.379-23.069-24.35-11.534-15.379-21.787-33.322-29.477-52.546v-1.282l8.971-5.126zM704.881 533.226c0 6.408 0 11.534-1.282 17.942-1.282 12.816-3.845 25.632-7.69 37.166h-12.816l-10.253 7.69-10.253-1.282v-6.408h-3.845l-3.845 2.563-17.942 5.126v11.534l-23.069-1.282-7.69-3.845h-12.816l-11.534-6.408v-11.534l-23.069-16.661 1.282-6.408h8.971l-1.282-6.408-2.563-1.282v-16.661l19.224-21.787h8.971v1.282h14.098l3.845 3.845h8.971l5.126-5.126 12.816-1.282-1.282-19.224 14.098-25.632-7.69-14.098v-6.408l6.408-6.408v-16.661l7.69-10.253v-14.098h1.282c10.253 11.534 17.942 24.35 25.632 37.166 6.408 14.098 12.816 28.195 16.661 43.574 1.282 3.845 1.282 7.69 2.563 11.534 2.563 11.534 2.563 23.069 2.563 34.603-1.282 3.845-1.282 3.845-1.282 5.126zM701.036 587.053v0c0 6.408-2.563 11.534-3.845 16.661h-5.126c2.563-5.126 3.845-11.534 6.408-16.661h2.563zM334.498 639.599c-2.563-5.126-5.126-8.971-7.69-14.098l8.971 10.253-1.282 3.845zM506.233 332.015c-110.218 0-199.93 89.712-199.93 199.93 0 24.35 5.126 47.419 12.816 69.207v8.971c2.563 5.126 5.126 10.253 7.69 15.379l-7.69-8.971v-6.408c-10.253-24.35-16.661-51.264-16.661-79.459 0-112.781 90.994-203.775 203.775-203.775 64.080 0 120.471 29.477 157.637 75.615h-5.126c-37.166-43.574-90.994-70.488-152.511-70.488zM638.238 679.329l2.563 3.845c-35.885 32.040-83.304 51.264-134.568 51.264-44.856 0-85.867-14.098-119.189-38.448h7.69c32.040 21.787 70.488 34.603 111.499 34.603 51.264 0 97.402-19.224 132.005-51.264z" />
<glyph unicode="&#xe933;" glyph-name="online2" d="M511.189 890.22c110.352 0 215.835-40.571 298.599-115.22 6.491-6.491 14.605-12.983 19.474-19.474l1.623-3.246c1.623-1.623 3.246-3.246 4.868-4.868 35.702-38.948 63.29-81.141 82.764-128.203l1.623-3.246c0-1.623 1.623-3.246 1.623-6.491 14.605-38.948 24.342-79.518 29.211-120.089 1.623-12.983 1.623-25.965 1.623-37.325v-4.868c0-25.965-1.623-51.93-6.491-77.895-1.623-9.737-3.246-17.851-4.868-25.965-8.114-34.079-19.474-66.536-35.702-97.369-76.273-149.3-227.195-241.8-394.345-241.8-245.046 0-443.030 197.984-443.030 443.030 0 98.992 32.456 191.493 92.501 271.011 14.605 19.474 32.456 38.948 50.307 55.176 82.764 74.65 188.247 116.843 300.222 116.843zM511.189 958.379c-133.071 0-254.783-51.93-345.661-134.694-21.097-19.474-40.571-40.571-58.422-63.29-66.536-86.009-107.106-194.738-107.106-311.582 0-282.371 228.818-511.189 511.189-511.189 197.984 0 370.003 113.597 456.013 279.125 17.851 35.702 32.456 73.027 42.193 111.975 3.246 9.737 4.868 19.474 6.491 30.834 4.868 29.211 8.114 58.422 8.114 89.255 0 1.623 0 3.246 0 4.868 0 14.605-1.623 29.211-1.623 43.816-4.868 48.685-16.228 95.746-34.079 139.563-1.623 3.246-3.246 6.491-3.246 9.737-22.719 55.176-55.176 105.483-95.746 147.677-3.246 3.246-4.868 4.868-8.114 8.114-8.114 8.114-14.605 16.228-22.719 22.719-94.124 82.764-215.835 133.071-347.284 133.071v0zM791.937 776.623l-9.737-9.737 1.623-11.36 11.36-1.623 6.491-16.228 19.474 8.114 3.246-22.719h-6.491l-16.228 1.623-16.228-1.623-16.228-24.342-24.342-3.246-3.246-21.097 9.737-3.246-3.246-12.983-24.342 4.868-21.097-4.868-4.868-11.36 3.246-25.965 12.983-6.491h21.097l14.605 1.623 4.868 11.36 22.719 29.211 14.605-3.246 14.605 12.983 3.246-9.737 35.702-24.342-4.868-6.491h-16.228l6.491-8.114 9.737-1.623 11.36 4.868v14.605l4.868 3.246-4.868 4.868-24.342 12.983-6.491 17.851h19.474l6.491-6.491 17.851-14.605v-17.851l17.851-19.474 6.491 25.965 12.983 6.491 1.623-21.097 12.983-12.983h12.983c0 0 0 0 0 0-1.623 3.246-1.623 6.491-3.246 8.114-21.097 48.685-50.307 92.501-86.009 131.448-1.623 3.246-4.868 4.868-6.491 8.114-6.491 6.491-12.983 12.983-21.097 19.474-1.623 1.623-1.623 1.623-3.246 3.246v0l-17.851-8.114zM103.861 593.244v-37.325l17.851-30.834 14.605-1.623 1.623 11.36-17.851 27.588-3.246 25.965h9.737l4.868-27.588 25.965-37.325-4.868-12.983 16.228-24.342 40.571-9.737v6.491l16.228-1.623-1.623-11.36 12.983-1.623 19.474-4.868 27.588-32.456 35.702-3.246 3.246-29.211-24.342-16.228v-27.588l-3.246-16.228 35.702-43.816 3.246-14.605c0 0 12.983-3.246 14.605-3.246s29.211-21.097 29.211-21.097v-79.518l9.737-3.246-6.491-37.325 16.228-21.097-3.246-35.702 21.097-37.325 27.588-24.342h27.588l3.246 8.114-19.474 17.851 1.623 8.114 3.246 9.737v11.36h-12.983l-6.491 8.114 11.36 11.36 1.623 8.114-12.983 3.246v8.114l17.851 3.246 27.588 12.983 9.737 16.228 29.211 37.325-6.491 29.211 8.114 16.228 25.965-1.623 17.851 14.605 6.491 55.176 19.474 25.965 3.246 16.228-17.851 6.491-11.36 19.474h-40.571l-32.456 12.983-1.623 22.719-14.605 19.474h-29.211l-16.228 25.965-14.605 8.114v-8.114l-27.588-1.623-9.737 14.605-29.211 6.491-25.965-29.211-37.325 6.491-1.623 42.193-27.588 4.868 11.36 21.097-3.246 11.36-35.702-24.342-21.097 3.246-8.114 16.228 4.868 17.851 12.983 22.719 27.588 14.605h55.176v-16.228l19.474-9.737-1.623 29.211 14.605 14.605 29.211 19.474 1.623 12.983 29.211 29.211 30.834 16.228-3.246 1.623 21.097 19.474 8.114-1.623 3.246-4.868 9.737 9.737-8.114 1.623-8.114 3.246v8.114l4.868 3.246h9.737l4.868-1.623 3.246-8.114h6.491l14.605 1.623 1.623 6.491 8.114-1.623v-8.114l-11.36-3.246 1.623-8.114 25.965-8.114h6.491v11.36l-21.097 9.737-1.623 4.868 16.228 6.491v16.228l-17.851 11.36-1.623 27.588-24.342-11.36h-8.114l1.623 21.097-32.456 8.114-12.983-9.737v-30.834l-24.342-8.114-9.737-21.097-11.36-1.623v25.965l-22.719 3.246-9.737 4.868-4.868 17.851 40.571 24.342 21.097 6.491 1.623-12.983h11.36v6.491l11.36 1.623v3.246h-3.246l-1.623 6.491 14.605 1.623 8.114 9.737 3.246 3.246 30.834 3.246 12.983-11.36-35.702-19.474 45.439-11.36 6.491 17.851h19.474l6.491 12.983-12.983 3.246v16.228l-43.816 19.474-30.834-3.246-16.228-9.737 1.623-21.097-17.851 3.246-3.246 11.36 17.851 16.228-30.834 1.623-8.114-3.246-3.246-9.737 11.36-1.623-1.623-11.36-19.474-1.623-3.246-8.114h-29.211c0 0 0 16.228-1.623 16.228s22.719 0 22.719 0l17.851 16.228-9.737 4.868-12.983-11.36-21.097 1.623-12.983 16.228h-25.965l-27.588-21.097h24.342l1.623-8.114-6.491-6.491 27.588-1.623 4.868-9.737-30.834 1.623-1.623 8.114-19.474 4.868-9.737 6.491h-6.491c-17.851-12.983-35.702-25.965-51.93-40.571-19.474-17.851-35.702-35.702-51.93-56.799-27.588-35.702-50.307-76.273-66.536-118.466v-3.246l16.228-11.36zM965.579 452.059c0 12.983-1.623 25.965-1.623 38.948-3.246 29.211-8.114 56.799-16.228 84.387h-29.211l-22.719 16.228-24.342-1.623v-14.605h-8.114l-8.114 6.491-40.571 9.737v25.965l-51.93-4.868-16.228-8.114h-21.097l-9.737 1.623-24.342-14.605v-25.965l-51.93-35.702 4.868-16.228h9.737l-3.246-14.605-6.491-3.246v-38.948l43.816-50.307h19.474l1.623 3.246h34.079l9.737 8.114h19.474l11.36-11.36 29.211-3.246-3.246-38.948 32.456-56.799-17.851-32.456 1.623-14.605 12.983-12.983v-37.325l17.851-24.342v-30.834h1.623c22.719 25.965 42.193 55.176 56.799 86.009 16.228 30.834 29.211 64.913 37.325 100.615 1.623 9.737 3.246 17.851 4.868 27.588 4.868 25.965 6.491 51.93 6.491 79.518 1.623 0 1.623 1.623 1.623 3.246zM954.219 575.393l3.246 1.623c-3.246 12.983-8.114 24.342-12.983 37.325h-11.36c4.868-12.983 9.737-25.965 12.983-38.948h8.114zM120.089 695.482c-6.491-9.737-12.983-21.097-17.851-32.456l19.474 22.719-1.623 9.737zM511.189-7.2c-249.914 0-454.39 204.475-454.39 454.39 0 55.176 9.737 108.729 29.211 157.414v24.342c4.868 11.36 11.36 22.719 16.228 34.079l-16.228-19.474v-14.605c-24.342-55.176-37.325-116.843-37.325-181.756 0-256.406 207.721-464.127 464.127-464.127 144.431 0 274.257 66.536 360.266 172.019h-14.605c-84.387-98.992-207.721-162.282-347.284-162.282zM813.033 786.36l4.868 9.737c-81.141 71.404-188.247 115.22-306.713 115.22-102.238 0-196.361-32.456-272.634-89.255h16.228c73.027 50.307 160.659 79.518 254.783 79.518 116.843 0 223.949-43.816 303.467-115.22z" />
</font>
</defs>
</svg>
